<svg width="60" height="54" viewBox="0 0 60 54" fill="none" xmlns="http://www.w3.org/2000/svg">
<path d="M46.7763 37.9896C49.033 35.7753 50.7549 32.9906 51.9527 30.0108C50.2029 31.7886 48.1087 32.8852 45.6147 33.4804L44.4708 35.2151C43.9004 36.0802 44.3244 37.2506 45.3165 37.5496L46.7763 37.9896Z" fill="#4A34AF"/>
<path d="M16.4816 26.6292C16.9365 29.5778 17.8625 32.4388 19.3917 34.9201L20.9128 34.8142C21.9465 34.7422 22.619 33.6948 22.2543 32.7249L21.5321 30.8046C19.4416 29.7859 17.7616 28.4405 16.4816 26.6292Z" fill="#412CA1"/>
<path fill-rule="evenodd" clip-rule="evenodd" d="M44.4708 35.2151C43.9004 36.0802 44.3244 37.2506 45.3165 37.5496L46.7763 37.9896C43.2934 41.4073 38.5365 43.466 32.4661 42.7856C31.3911 42.4072 28.585 41.061 25.9606 38.7035C25.0484 37.8841 24.4025 36.9318 23.9528 35.9778C25.6463 35.615 27.988 35.2777 31.0023 35.142C36.9126 34.876 42.4439 35.0799 44.4708 35.2151Z" fill="#F3F2F9"/>
<path d="M20.8447 36.9369C23.4136 39.9956 27.1755 42.1926 32.4661 42.7856C31.3911 42.4072 28.585 41.061 25.9606 38.7035C25.0484 37.8841 24.4025 36.9318 23.9528 35.9778C22.3259 36.3262 21.2971 36.6981 20.8447 36.9369Z" fill="#ECEAF8"/>
<path fill-rule="evenodd" clip-rule="evenodd" d="M33.0647 33.5792L33.6863 33.6489C38.4251 34.1801 42.3603 34.2571 45.6147 33.4804L44.4708 35.2151C42.4439 35.0799 36.9126 34.876 31.0023 35.142C27.988 35.2777 25.6463 35.615 23.9528 35.9778C23.1089 34.1871 22.9566 32.3904 23.0334 31.4549C25.774 32.5087 29.1117 33.1361 33.0647 33.5792Z" fill="#D8D6E4"/>
<path d="M22.2543 32.7249C22.619 33.6948 21.9465 34.7422 20.9128 34.8142L19.3917 34.9201L19.4068 34.9445C19.8375 35.6409 20.3158 36.3071 20.8447 36.9369C21.2971 36.6981 22.3259 36.3262 23.9528 35.9778C23.1089 34.1871 22.9566 32.3904 23.0334 31.4549C22.5113 31.2542 22.0109 31.038 21.5321 30.8046L22.2543 32.7249Z" fill="#E5E2F7"/>
<mask id="mask0_4096_12539" style="mask-type:alpha" maskUnits="userSpaceOnUse" x="16" y="26" width="36" height="17">
<path d="M46.7767 37.9897C49.0334 35.7754 50.7552 32.9907 51.9531 30.0109C50.2033 31.7887 48.1091 32.8853 45.6151 33.4805L44.4712 35.2153C43.9008 36.0803 44.3247 37.2507 45.3169 37.5497L46.7767 37.9897Z" fill="#4A34AF"/>
<path d="M16.482 26.6293C16.9369 29.5779 17.8629 32.439 19.3921 34.9202L20.9132 34.8143C21.9468 34.7423 22.6194 33.6949 22.2546 32.725L21.5325 30.8047C19.442 29.786 17.762 28.4406 16.482 26.6293Z" fill="#412CA1"/>
<path fill-rule="evenodd" clip-rule="evenodd" d="M44.4712 35.2153C43.9008 36.0803 44.3247 37.2507 45.3169 37.5497L46.7767 37.9897C43.2937 41.4074 38.5368 43.4662 32.4665 42.7857C31.3915 42.4073 28.5854 41.0611 25.961 38.7036C25.0488 37.8842 24.4028 36.9319 23.9532 35.9779C25.6467 35.6152 27.9883 35.2778 31.0027 35.1421C36.913 34.8761 42.4443 35.0801 44.4712 35.2153Z" fill="#F3F2F9"/>
<path d="M20.8451 36.937C23.414 39.9957 27.1759 42.1927 32.4665 42.7857C31.3915 42.4073 28.5854 41.0611 25.961 38.7036C25.0488 37.8842 24.4028 36.9319 23.9532 35.9779C22.3263 36.3263 21.2975 36.6982 20.8451 36.937Z" fill="#ECEAF8"/>
<path fill-rule="evenodd" clip-rule="evenodd" d="M33.0651 33.5793L33.6866 33.649C38.4255 34.1802 42.3607 34.2572 45.6151 33.4805L44.4712 35.2153C42.4443 35.0801 36.913 34.8761 31.0027 35.1421C27.9883 35.2778 25.6467 35.6152 23.9532 35.9779C23.1093 34.1872 22.9569 32.3905 23.0337 31.455C25.7744 32.5088 29.1121 33.1362 33.0651 33.5793Z" fill="#D8D6E4"/>
<path d="M22.2546 32.725C22.6194 33.6949 21.9468 34.7423 20.9132 34.8143L19.3921 34.9202L19.4072 34.9447C19.8379 35.641 20.3162 36.3073 20.8451 36.937C21.2975 36.6982 22.3263 36.3263 23.9532 35.9779C23.1093 34.1872 22.9569 32.3905 23.0337 31.455C22.5117 31.2543 22.0113 31.0381 21.5325 30.8047L22.2546 32.725Z" fill="#E5E2F7"/>
</mask>
<g mask="url(#mask0_4096_12539)">
<path d="M26.1286 36.4012L24.8231 39.9946L22.9309 45.6162L42.3814 47.7964L41.0963 42.0766L39.7558 37.9286L26.1286 36.4012Z" fill="#E9E8F1"/>
<path d="M21.4667 33.5776L26.1286 36.4012M26.1286 36.4012L24.8231 39.9946L22.9309 45.6162L42.3814 47.7964L41.0963 42.0766L39.7558 37.9286M26.1286 36.4012L39.7558 37.9286M39.7558 37.9286L44.9095 35.6693" stroke="url(#paint0_linear_4096_12539)" stroke-width="0.799344" stroke-linecap="round"/>
</g>
<path d="M36.9619 11.2578C36.9619 11.2578 34.4444 11.344 37.692 7.66284C40.9397 3.98169 43.4705 3.42424 43.4705 3.42424" stroke="#4A34AD" stroke-width="1.25706" stroke-linecap="round"/>
<circle cx="43.9549" cy="2.96629" r="2.04273" transform="rotate(1.61444 43.9549 2.96629)" fill="#4A34AD"/>
<path d="M55.0756 13.6493C52.2334 8.31409 46.7136 6.93849 38.0101 6.69319L37.4483 6.67735C28.7446 6.43204 23.1561 7.4946 20.0179 12.6615C19.3991 13.5778 18.8877 14.5926 18.5067 15.6868C18.0312 17.0527 17.759 18.5424 17.735 20.1186C17.6183 22.9554 18.3211 25.5573 19.5943 27.6924C22.4364 33.0279 27.9562 34.4035 36.6599 34.6488L37.2218 34.6647C40.3047 34.7516 42.9968 34.6744 45.3275 34.3088C49.5768 33.6423 52.6253 32.0174 54.6519 28.6809C56.0433 26.6208 56.8918 24.0625 56.935 21.2234C57.0518 18.3865 56.3488 15.7845 55.0756 13.6493Z" fill="#FBFAFF"/>
<g filter="url(#filter0_i_4096_12539)">
<path fill-rule="evenodd" clip-rule="evenodd" d="M53.6425 24.7018C53.8916 23.9396 54.0453 23.2962 54.1271 22.3695C54.5144 17.9872 52.2132 14.2411 48.7734 12.4575C45.4268 11.062 43.9922 11.57 42.381 12.1405C41.7638 12.3591 41.1208 12.5868 40.3344 12.7202C39.5277 12.8571 38.6008 12.9653 37.5506 13.0177C36.5051 12.9063 35.5857 12.746 34.788 12.5639C34.0104 12.3864 33.3812 12.1228 32.7773 11.8699C31.2008 11.2095 29.7971 10.6215 26.3772 11.8263C23.6924 13.0316 21.5996 15.4044 20.8096 18.4026C20.8096 18.4026 23.9349 19.6811 25.2294 21.2842C26.048 22.2978 26.0975 23.3946 26.147 24.4915C26.1964 25.5878 26.2459 26.6843 27.0634 27.6981C29.159 30.2969 35.0351 30.7857 35.0351 30.7857C35.0351 30.7857 39.1705 31.4026 41.8381 31.4016C44.6615 31.4005 49.0342 30.7061 49.0342 30.7061C51.1781 29.52 52.6867 27.626 53.6425 24.7018Z" fill="#F3F2F9"/>
<path d="M36.7617 32.4366L37.2445 32.4502C42.3733 32.5947 46.2424 32.2506 49.0342 30.7061C49.0342 30.7061 44.6615 31.4005 41.8381 31.4016C39.1705 31.4026 35.0351 30.7857 35.0351 30.7857C35.0351 30.7857 29.159 30.2969 27.0634 27.6981C26.2459 26.6843 26.1964 25.5878 26.147 24.4915C26.0975 23.3946 26.048 22.2978 25.2294 21.2842C23.9349 19.6811 20.8096 18.4026 20.8096 18.4026C20.5595 19.3518 20.44 20.3637 20.4737 21.421C20.5032 22.3508 20.6204 23.0019 20.8262 23.7768C22.6441 30.6223 27.6943 32.181 36.7617 32.4366Z" fill="#F3F2F9"/>
</g>
<path d="M22.8984 21.2182C22.3882 21.4868 22.1873 22.044 22.3298 22.5806C22.4723 23.1173 22.6347 23.6214 22.8173 24.095C24.9642 29.6625 29.9088 31.0048 38.2653 31.2404C38.2653 31.2404 39.2103 31.2562 39.7969 31.1317C40.2709 31.0312 40.9743 30.7408 40.9743 30.7408C38.821 30.6447 33.5266 30.1279 29.5762 28.829C26.3714 27.7752 25.0878 25.0819 24.7058 23.1778C24.6169 22.7348 24.7926 22.4116 24.5727 22.0076C24.2271 21.3727 23.538 20.8813 22.8984 21.2182Z" fill="white"/>
<mask id="mask1_4096_12539" style="mask-type:alpha" maskUnits="userSpaceOnUse" x="17" y="6" width="40" height="29">
<path d="M55.0756 13.6493C52.2334 8.31409 46.7136 6.93849 38.0101 6.69319L37.4483 6.67735C28.7446 6.43204 23.1561 7.4946 20.0179 12.6615C18.6266 14.7215 17.7783 17.2797 17.735 20.1186C17.6183 22.9554 18.3211 25.5573 19.5943 27.6924C22.4364 33.0279 27.9562 34.4035 36.6599 34.6488L37.2218 34.6647C45.9252 34.91 51.5137 33.8475 54.6519 28.6809C56.0433 26.6208 56.8918 24.0625 56.935 21.2234C57.0518 18.3865 56.3488 15.7845 55.0756 13.6493Z" fill="#FBFAFF"/>
<path d="M37.4454 6.78376L38.0067 6.79958C46.7104 7.04489 52.1706 8.42182 54.9821 13.6995L54.985 13.7035C56.2475 15.8208 56.9445 18.4028 56.8286 21.2194L56.8286 21.2213C56.7857 24.0398 55.9442 26.5786 54.5645 28.6214L54.5635 28.6214L54.5614 28.6262C51.457 33.737 45.928 34.8044 37.2243 34.5591L36.663 34.5432C27.959 34.2979 22.4991 32.9203 19.6876 27.6423L19.6858 27.6384L19.4548 27.2362C18.3383 25.1977 17.7325 22.763 17.8411 20.1225L17.8412 20.1205C17.8841 17.302 18.7266 14.7632 20.1062 12.7205L20.1083 12.7166C23.2126 7.60535 28.7414 6.53844 37.4454 6.78376Z" stroke="#211651" stroke-opacity="0.2" stroke-width="0.211989"/>
</mask>
<g mask="url(#mask1_4096_12539)">
<g filter="url(#filter1_i_4096_12539)">
<path d="M48.7915 11.822C45.4449 10.4266 44.0103 10.9346 42.3991 11.5051C41.782 11.7236 41.1389 11.9513 40.3525 12.0847C39.5458 12.2216 38.6616 12.4131 37.5687 12.3823C36.4758 12.3515 35.6039 12.1105 34.8061 11.9284C34.0285 11.7509 33.3993 11.4873 32.7954 11.2344C31.2189 10.574 29.8152 9.98604 26.3953 11.1908M48.7915 11.822C52.2313 13.6056 54.5326 17.3517 54.1453 21.7341L56.9198 21.8123M48.7915 11.822L49.8511 10.5529L50.9107 9.28381M26.3953 11.1908C22.8605 12.7778 20.352 16.3883 20.4918 20.7855L17.7174 20.7074M26.3953 11.1908L25.4089 9.86402L24.4225 8.53724L23.228 6.24882" stroke="#5038BC" stroke-width="1.27194" stroke-linecap="round" stroke-linejoin="round"/>
</g>
</g>
<path d="M58.8359 20.0982C58.7784 22.1367 59.3262 23.8059 57.9852 23.7681C57.2619 23.7477 56.6261 23.2487 56.2027 22.4736C55.9437 21.9994 55.7643 21.4219 55.693 20.7873C55.6647 20.5358 55.6535 20.2753 55.661 20.0088C55.7184 17.9704 56.8522 16.3485 58.1932 16.3863C59.5343 16.4241 58.8933 18.0598 58.8359 20.0982Z" fill="#4A34AE"/>
<path d="M55.661 20.0088C55.7184 17.9704 56.8522 16.3485 58.1932 16.3863L55.0225 14.9167L55.1102 20.7709L55.693 20.7873C55.6647 20.5358 55.6535 20.2753 55.661 20.0088Z" fill="#FBFAFF"/>
<path d="M54.9613 26.0546L57.9852 23.7681C57.2619 23.7477 56.6261 23.2487 56.2027 22.4736L55.0489 22.9465L54.9613 26.0546Z" fill="#FBFAFF"/>
<path d="M18.6631 25.0317L15.7728 22.5785C16.496 22.5989 17.159 22.1365 17.6253 21.3865L18.7507 21.9236L18.6631 25.0317Z" fill="#CCCAD5"/>
<path d="M18.305 18.956C18.3625 16.9176 17.3219 15.2345 15.9808 15.1967L19.2293 13.908L18.812 19.748L18.2292 19.7316C18.2716 19.482 18.2975 19.2226 18.305 18.956Z" fill="#FBFAFF"/>
<path d="M15.1301 18.8666C15.0727 20.905 14.4317 22.5407 15.7728 22.5785C16.496 22.5989 17.159 22.1365 17.6253 21.3865C17.9106 20.9276 18.1223 20.3611 18.2292 19.7316C18.2716 19.482 18.2975 19.2226 18.305 18.956C18.3625 16.9176 17.3219 15.2345 15.9808 15.1967C14.6398 15.1589 15.1876 16.8282 15.1301 18.8666Z" fill="#4A34AE"/>
<path d="M52.3454 22.7966C52.7327 18.4142 50.4314 14.6681 46.9916 12.8846L45.7142 13.0606C47.1786 13.7735 49.3509 15.708 50.9685 18.5106C52.3368 20.8812 52.1734 22.4717 52.3454 22.7966Z" fill="white"/>
<path opacity="0.3" d="M17.7351 20.1184C17.6184 22.9552 18.3212 25.5572 19.5944 27.6923C22.4365 33.0278 27.9563 34.4034 36.66 34.6487L37.2219 34.6645C40.3048 34.7514 42.9969 34.6742 45.3276 34.3087C40.6508 33.4526 30.3167 31.1616 26.395 28.8455C22.4733 26.5294 19.5022 19.1079 18.5068 15.6866C18.0313 17.0526 17.7591 18.5422 17.7351 20.1184Z" fill="#AEABBF"/>
<path d="M29.4623 20.4021C29.4043 22.4605 30.1189 24.3174 31.4867 24.356C32.8546 24.3945 32.14 22.5376 32.198 20.4792C32.256 18.4208 32.6941 16.7148 31.3262 16.6763C29.9584 16.6377 29.5203 18.3437 29.4623 20.4021Z" fill="#33247A"/>
<mask id="mask2_4096_12539" style="mask-type:alpha" maskUnits="userSpaceOnUse" x="29" y="16" width="4" height="9">
<path d="M29.4623 20.4021C29.4043 22.4605 30.1189 24.3174 31.4867 24.356C32.8546 24.3945 32.14 22.5376 32.198 20.4792C32.256 18.4208 32.6941 16.7148 31.3262 16.6763C29.9584 16.6377 29.5203 18.3437 29.4623 20.4021Z" fill="#33247A"/>
</mask>
<g mask="url(#mask2_4096_12539)">
<ellipse cx="32.0967" cy="23.4454" rx="0.822014" ry="0.800936" transform="rotate(1.61444 32.0967 23.4454)" fill="white"/>
<ellipse cx="30.0945" cy="18.919" rx="1.47541" ry="1.43325" transform="rotate(1.61444 30.0945 18.919)" fill="white"/>
</g>
<path d="M45.0953 20.8432C45.0373 22.9015 44.2193 24.7153 42.8514 24.6767C41.4836 24.6382 42.3016 22.8244 42.3596 20.766C42.4176 18.7077 42.0763 16.9797 43.4442 17.0182C44.812 17.0568 45.1533 18.7848 45.0953 20.8432Z" fill="#33247A"/>
<mask id="mask3_4096_12539" style="mask-type:alpha" maskUnits="userSpaceOnUse" x="42" y="17" width="4" height="8">
<path d="M45.0953 20.8432C45.0373 22.9015 44.2193 24.7153 42.8514 24.6767C41.4836 24.6382 42.3016 22.8244 42.3596 20.766C42.4176 18.7077 42.0763 16.9797 43.4442 17.0182C44.812 17.0568 45.1533 18.7848 45.0953 20.8432Z" fill="#33247A"/>
</mask>
<g mask="url(#mask3_4096_12539)">
<ellipse cx="44.1961" cy="23.5758" rx="0.822014" ry="0.800936" transform="rotate(1.61444 44.1961 23.5758)" fill="white"/>
<ellipse cx="42.5732" cy="19.0598" rx="1.47541" ry="1.43325" transform="rotate(1.61444 42.5732 19.0598)" fill="white"/>
</g>
<path d="M29.0816 15.9592C29.0816 15.9592 29.689 16.1029 30.495 15.9358C31.301 15.7688 31.866 15.1732 31.866 15.1732" stroke="#33247A" stroke-width="0.582635" stroke-linecap="round" stroke-linejoin="round"/>
<path d="M45.5783 16.4241C45.5783 16.4241 44.9638 16.5333 44.1685 16.3211C43.3732 16.1089 42.8427 15.4825 42.8427 15.4825" stroke="#33247A" stroke-width="0.582635" stroke-linecap="round" stroke-linejoin="round"/>
<path d="M14.0713 7.13022C15.4607 6.09938 17.2638 5.36984 19.4375 5.60483C23.8679 6.08379 25.3757 8.96412 25.5967 10.2015V10.2025L27.332 19.8265C27.144 20.574 26.755 21.6613 26.167 22.6087C25.5336 23.6291 24.7581 24.3522 23.8818 24.4984L23.3467 24.5882V25.1302C23.3467 25.9674 23.813 26.9029 24.2852 27.6517C24.7769 28.4314 25.3629 29.1436 25.7588 29.5677L25.9111 29.7298L26.1318 29.763L30.9502 30.4906L37.5381 35.6664L37.666 35.7669L37.8262 35.7943L46.3066 37.2347L46.6328 37.2894L46.8672 37.056L49.1309 34.7914C50.079 35.8125 51.0266 37.2098 51.6152 38.6214C52.3118 40.2919 52.4192 41.7584 51.7812 42.6908C50.2762 44.8902 48.3144 45.2073 47.6104 45.138L36.6211 42.43L35.6768 42.1976L35.8369 43.1566L36.6729 48.1722H10.2715C9.40828 46.8874 8.18561 44.8715 7.29004 42.6888C6.3154 40.3134 5.78466 37.8787 6.35742 35.9886C7.00917 33.8379 7.39758 32.6319 7.82812 31.9417C8.02786 31.6216 8.21048 31.4596 8.39648 31.3656C8.59007 31.2677 8.85183 31.2103 9.26562 31.2103H9.28906C10.8338 31.154 13.013 30.6091 14.249 29.0003C15.5454 27.313 15.605 24.748 13.499 21.1283C11.4807 17.6593 10.7234 15.1225 10.5664 13.391C10.4069 11.6303 10.8694 10.7991 11.1309 10.5667L11.2227 10.4857L11.2783 10.3753C11.718 9.49593 12.6717 8.16861 14.0713 7.13022Z" fill="url(#paint1_linear_4096_12539)" stroke="url(#paint2_linear_4096_12539)" stroke-width="1.28012"/>
<path d="M7.16826 28.5618C6.38298 31.6423 5.19383 34.6361 3.55628 37.3938C3.11196 38.142 3.47954 39.1298 4.31962 39.3569L16.1495 42.5537C17.2645 42.8551 18.1686 41.6299 17.552 40.6533L9.63594 28.1159C9.01278 27.129 7.45659 27.4308 7.16826 28.5618Z" fill="url(#paint3_linear_4096_12539)"/>
<path fill-rule="evenodd" clip-rule="evenodd" d="M29.3549 38.7377L36.4254 44.0931C38.196 45.4342 37.376 48.4106 35.2234 48.9583C35.1532 48.9762 35.083 48.9943 35.0129 49.0126C33.9475 48.5847 31.4688 47.5991 30.0771 47.0801C28.6855 46.5611 27.1677 46.7716 26.5828 46.9417L25.5247 41.0898C25.1336 38.927 27.6028 37.4106 29.3549 38.7377Z" fill="url(#paint4_linear_4096_12539)"/>
<path d="M34.0029 49.2929C33.4564 49.4536 32.9137 49.6282 32.3755 49.817C31.7556 50.0346 31.1417 50.2709 30.5352 50.5267C29.0096 51.1698 27.1931 50.312 26.8977 48.6832L26.8975 48.6819L26.5828 46.9417C27.1677 46.7716 28.6855 46.5611 30.0771 47.0801C31.4688 47.5991 33.9475 48.5847 35.0129 49.0126C34.6749 49.1008 34.3382 49.1942 34.0029 49.2929Z" fill="#EDEBF4"/>
<path d="M34.0029 49.2929C33.4564 49.4536 32.9137 49.6282 32.3755 49.817C31.7556 50.0346 31.1417 50.2709 30.5352 50.5267C29.0096 51.1698 27.1931 50.312 26.8977 48.6832L26.8975 48.6819L26.5828 46.9417C27.1677 46.7716 28.6855 46.5611 30.0771 47.0801C31.4688 47.5991 33.9475 48.5847 35.0129 49.0126C34.6749 49.1008 34.3382 49.1942 34.0029 49.2929Z" fill="url(#paint5_linear_4096_12539)"/>
<defs>
<filter id="filter0_i_4096_12539" x="20.4681" y="11.1295" width="33.7015" height="21.5627" filterUnits="userSpaceOnUse" color-interpolation-filters="sRGB">
<feFlood flood-opacity="0" result="BackgroundImageFix"/>
<feBlend mode="normal" in="SourceGraphic" in2="BackgroundImageFix" result="shape"/>
<feColorMatrix in="SourceAlpha" type="matrix" values="0 0 0 0 0 0 0 0 0 0 0 0 0 0 0 0 0 0 127 0" result="hardAlpha"/>
<feOffset dy="0.211989"/>
<feGaussianBlur stdDeviation="1.58992"/>
<feComposite in2="hardAlpha" operator="arithmetic" k2="-1" k3="1"/>
<feColorMatrix type="matrix" values="0 0 0 0 0 0 0 0 0 0 0 0 0 0 0 0 0 0 0.12 0"/>
<feBlend mode="normal" in2="shape" result="effect1_innerShadow_4096_12539"/>
</filter>
<filter id="filter1_i_4096_12539" x="17.0814" y="5.61273" width="40.4744" height="17.0475" filterUnits="userSpaceOnUse" color-interpolation-filters="sRGB">
<feFlood flood-opacity="0" result="BackgroundImageFix"/>
<feBlend mode="normal" in="SourceGraphic" in2="BackgroundImageFix" result="shape"/>
<feColorMatrix in="SourceAlpha" type="matrix" values="0 0 0 0 0 0 0 0 0 0 0 0 0 0 0 0 0 0 127 0" result="hardAlpha"/>
<feOffset dy="0.211989"/>
<feGaussianBlur stdDeviation="1.58992"/>
<feComposite in2="hardAlpha" operator="arithmetic" k2="-1" k3="1"/>
<feColorMatrix type="matrix" values="0 0 0 0 0 0 0 0 0 0 0 0 0 0 0 0 0 0 0.12 0"/>
<feBlend mode="normal" in2="shape" result="effect1_innerShadow_4096_12539"/>
</filter>
<linearGradient id="paint0_linear_4096_12539" x1="21.1478" y1="36.4232" x2="44.5312" y2="39.0442" gradientUnits="userSpaceOnUse">
<stop stop-color="#402C9D"/>
<stop offset="1" stop-color="#4B35AF"/>
</linearGradient>
<linearGradient id="paint1_linear_4096_12539" x1="29.1628" y1="48.8124" x2="29.1628" y2="4.92026" gradientUnits="userSpaceOnUse">
<stop stop-color="#375678"/>
<stop offset="1" stop-color="#78A0C0"/>
</linearGradient>
<linearGradient id="paint2_linear_4096_12539" x1="29.1628" y1="4.92026" x2="18.2516" y2="35.4832" gradientUnits="userSpaceOnUse">
<stop stop-color="#666666" stop-opacity="0"/>
<stop offset="1" stop-color="#365476"/>
</linearGradient>
<linearGradient id="paint3_linear_4096_12539" x1="8.76712" y1="25.1605" x2="11.3999" y2="44.4768" gradientUnits="userSpaceOnUse">
<stop offset="0.365471" stop-color="#F3F2F9"/>
<stop offset="0.985" stop-color="#DBD9E8"/>
</linearGradient>
<linearGradient id="paint4_linear_4096_12539" x1="41.8808" y1="46.2534" x2="22.8581" y2="41.9893" gradientUnits="userSpaceOnUse">
<stop offset="0.365471" stop-color="#F3F2F9"/>
<stop offset="0.985" stop-color="#DBD9E8"/>
</linearGradient>
<linearGradient id="paint5_linear_4096_12539" x1="41.8808" y1="46.2534" x2="27.2563" y2="47.8173" gradientUnits="userSpaceOnUse">
<stop offset="0.365471" stop-color="#F3F2F9"/>
<stop offset="0.985" stop-color="#DBD9E8"/>
</linearGradient>
</defs>
</svg>
