<svg width="140" height="170" viewBox="0 0 140 170" fill="none" xmlns="http://www.w3.org/2000/svg">
<path d="M17 54C14.2386 54 12 56.2386 12 59C12 59.0796 12.0032 59.1586 12.0068 59.2373C12.0027 59.3244 12 59.4119 12 59.5V82.5C12 85.5376 14.4624 88 17.5 88C20.5376 88 23 85.5376 23 82.5V64H37C39.7614 64 42 61.7614 42 59C42 56.2386 39.7614 54 37 54H17Z" fill="#596C76"/>
<path d="M17 54V53.5V54ZM12.0068 59.2373L12.5063 59.214L12.5074 59.2374L12.5063 59.2608L12.0068 59.2373ZM12 59.5H12.5H12ZM12 82.5H11.5H12ZM17.5 88V88.5V88ZM23 82.5H22.5H23ZM23 64H22.5V63.5H23V64ZM37 64V64.5V64ZM37 54V53.5V54ZM17 54V54.5C14.5147 54.5 12.5 56.5147 12.5 59H12H11.5C11.5 55.9624 13.9624 53.5 17 53.5V54ZM12 59H12.5C12.5 59.0673 12.5027 59.1366 12.5063 59.214L12.0068 59.2373L11.5074 59.2606C11.5036 59.1807 11.5 59.0919 11.5 59H12ZM12.0068 59.2373L12.5063 59.2608C12.5024 59.3428 12.5 59.4221 12.5 59.5H12H11.5C11.5 59.4017 11.5031 59.3059 11.5074 59.2138L12.0068 59.2373ZM12 59.5H12.5V82.5H12H11.5V59.5H12ZM12 82.5H12.5C12.5 85.2614 14.7386 87.5 17.5 87.5V88V88.5C14.1863 88.5 11.5 85.8137 11.5 82.5H12ZM17.5 88V87.5C20.2614 87.5 22.5 85.2614 22.5 82.5H23H23.5C23.5 85.8137 20.8137 88.5 17.5 88.5V88ZM23 82.5H22.5V64H23H23.5V82.5H23ZM23 64V63.5H37V64V64.5H23V64ZM37 64V63.5C39.4853 63.5 41.5 61.4853 41.5 59H42H42.5C42.5 62.0376 40.0376 64.5 37 64.5V64ZM42 59H41.5C41.5 56.5147 39.4853 54.5 37 54.5V54V53.5C40.0376 53.5 42.5 55.9624 42.5 59H42ZM37 54V54.5H17V54V53.5H37V54Z" fill="black"/>
<path d="M123 54C125.761 54 128 56.2386 128 59C128 59.0796 127.997 59.1586 127.993 59.2373C127.997 59.3244 128 59.4119 128 59.5V82.5C128 85.5376 125.538 88 122.5 88C119.462 88 117 85.5376 117 82.5V64H103C100.239 64 98 61.7614 98 59C98 56.2386 100.239 54 103 54H123Z" fill="#596C76"/>
<path d="M123 54V53.5V54ZM127.993 59.2373L127.494 59.214L127.493 59.2374L127.494 59.2608L127.993 59.2373ZM128 59.5H127.5H128ZM128 82.5H128.5H128ZM122.5 88V88.5V88ZM117 82.5H117.5H117ZM117 64H117.5V63.5H117V64ZM103 64V64.5V64ZM103 54V53.5V54ZM123 54V54.5C125.485 54.5 127.5 56.5147 127.5 59H128H128.5C128.5 55.9624 126.038 53.5 123 53.5V54ZM128 59H127.5C127.5 59.0673 127.497 59.1366 127.494 59.214L127.993 59.2373L128.493 59.2606C128.496 59.1807 128.5 59.0919 128.5 59H128ZM127.993 59.2373L127.494 59.2608C127.498 59.3428 127.5 59.4221 127.5 59.5H128H128.5C128.5 59.4017 128.497 59.3059 128.493 59.2138L127.993 59.2373ZM128 59.5H127.5V82.5H128H128.5V59.5H128ZM128 82.5H127.5C127.5 85.2614 125.261 87.5 122.5 87.5V88V88.5C125.814 88.5 128.5 85.8137 128.5 82.5H128ZM122.5 88V87.5C119.739 87.5 117.5 85.2614 117.5 82.5H117H116.5C116.5 85.8137 119.186 88.5 122.5 88.5V88ZM117 82.5H117.5V64H117H116.5V82.5H117ZM117 64V63.5H103V64V64.5H117V64ZM103 64V63.5C100.515 63.5 98.5 61.4853 98.5 59H98H97.5C97.5 62.0376 99.9624 64.5 103 64.5V64ZM98 59H98.5C98.5 56.5147 100.515 54.5 103 54.5V54V53.5C99.9624 53.5 97.5 55.9624 97.5 59H98ZM103 54V54.5H123V54V53.5H103V54Z" fill="black"/>
<rect x="34.8518" y="131.852" width="18.4444" height="18.6605" rx="2.74074" fill="#4F4F4F" stroke="black"/>
<rect x="86.9197" y="131.852" width="18.4444" height="18.6605" rx="2.74074" fill="#4F4F4F" stroke="black"/>
<path d="M103.559 42.4875C108.667 42.4875 112.784 46.6739 112.699 51.7815L111.366 132.152C111.284 137.141 107.216 141.142 102.226 141.142H38.1877C33.2059 141.142 29.141 137.153 29.0471 132.172L27.5364 51.801C27.4404 46.686 31.5601 42.4877 36.676 42.4875H103.559Z" fill="#473E91" stroke="#090D2B"/>
<mask id="mask0_4849_9628" style="mask-type:alpha" maskUnits="userSpaceOnUse" x="28" y="42" width="85" height="99">
<path d="M28.0359 51.792C27.945 46.9564 31.84 42.9875 36.6764 42.9875H103.559C108.388 42.9875 112.28 46.9446 112.2 51.7729L110.866 132.143C110.788 136.86 106.942 140.642 102.226 140.642H38.1878C33.4783 140.642 29.6359 136.871 29.5473 132.162L28.0359 51.792Z" fill="#E4BCBC"/>
</mask>
<g mask="url(#mask0_4849_9628)">
<rect x="69.1357" y="42.9875" width="43.2099" height="97.6543" fill="#3C3385"/>
<rect x="54.2964" y="121.265" width="31.1914" height="11.963" rx="2.09259" fill="white" fill-opacity="0.4" stroke="black"/>
<path d="M29.5 52.5L30.5 111" stroke="#473E91" stroke-width="3" stroke-linecap="round" stroke-linejoin="round"/>
<path d="M111 52.5L110 111" stroke="#3C3385" stroke-width="3" stroke-linecap="round" stroke-linejoin="round"/>
<rect x="92.4692" y="120.765" width="32.1914" height="6.91358" rx="3.45679" fill="#E6E7F5"/>
<rect x="15.1235" y="120.765" width="32.1914" height="6.91358" rx="3.45679" fill="#E6E7F5"/>
</g>
<g clip-path="url(#clip0_4849_9628)">
<path d="M102 46.5C106.694 46.5 110.5 50.3056 110.5 55V99.2344C110.5 103.204 107.756 106.649 103.847 107.418C95.7579 109.008 81.4266 111.5 71 111.5C60.5734 111.5 46.2421 109.008 38.1533 107.418C34.2441 106.649 31.5 103.204 31.5 99.2344V55C31.5 50.3056 35.3056 46.5 40 46.5H102Z" fill="#77E3FF" stroke="black"/>
<path d="M102 46C106.418 46 110 49.5817 110 54V98.2344C110 101.972 107.418 105.206 103.75 105.927C95.6599 107.517 81.3724 110 71 110V46H102Z" fill="#53D1F3"/>
<rect x="29" y="47" width="84.4753" height="10.1543" fill="#627F89"/>
</g>
<circle cx="70" cy="115" r="8.5" fill="#FF4A4A" stroke="black"/>
<circle cx="72" cy="110" r="2" fill="white"/>
<path d="M33.2858 43.5401C32.7662 44.4062 30.9042 44.9113 30.0382 45.0557C29.9661 45.2 29.3889 45.6619 29.3889 46.3547C29.3889 47.0475 29.6054 47.4373 29.8219 47.6538C30.0384 47.8703 30.3846 48.26 30.9042 48.0868L35.4508 46.1382C35.523 45.9939 35.6673 45.532 35.6673 44.8392C35.6673 44.1464 34.9456 43.6845 34.5848 43.5401C34.3683 43.468 33.8054 43.3669 33.2858 43.5401Z" fill="#FCC501"/>
<path d="M30.0382 45.0557C30.9042 44.9113 32.7662 44.4062 33.2858 43.5401L31.9869 39.6431C31.8425 39.2823 31.4237 38.4307 30.9042 37.9111C30.3848 37.3915 29.6775 35.9625 29.3889 35.313C29.1724 34.447 28.8694 32.1088 29.3889 29.6839C29.9083 27.2591 30.0383 26.2198 30.0384 26.0033C29.9662 25.6425 29.6053 24.9208 28.7393 24.9208C27.8733 24.9208 27.3681 25.3538 27.2238 25.5703C27.0073 25.859 26.531 27.0859 26.3578 29.6839C26.1846 32.282 24.9866 32.3541 24.4092 32.0655C22.3885 31.2716 18.9966 27.8653 21.5947 20.5907C22.2875 19.0319 22.1721 18.2092 22.0277 17.9927C21.5947 17.4875 20.5122 16.7803 19.6462 17.9927C18.7802 19.2051 18.275 20.3743 18.1306 20.8073C17.9141 21.3846 17.5244 22.929 17.6976 24.4879C17.9141 26.4364 15.5326 26.2199 15.0996 24.4879C14.6954 22.8711 14.2912 20.1225 16 15.7139C16.1219 15.3995 16.2545 15.0766 16.3986 14.7452C16.5718 12.6667 14.7387 12.8688 13.8005 13.2297C13.5118 13.374 12.8479 13.9224 12.5015 14.9616C12.0685 16.2607 8.38789 26.0034 14.45 31.416C16.3552 32.9748 20.2957 35.2409 22.0277 36.1791C24.1927 37.1172 28.8257 40.2059 30.0382 45.0557Z" fill="#CF8054"/>
<path d="M30.0382 45.0557C30.9042 44.9113 32.7662 44.4062 33.2858 43.5401M30.0382 45.0557C29.9661 45.2 29.3889 45.6619 29.3889 46.3547C29.3889 47.0475 29.6054 47.4373 29.8219 47.6538C30.0384 47.8703 30.3846 48.26 30.9042 48.0868L35.4508 46.1382C35.523 45.9939 35.6673 45.532 35.6673 44.8392C35.6673 44.1464 34.9456 43.6845 34.5848 43.5401C34.3683 43.468 33.8054 43.3669 33.2858 43.5401M30.0382 45.0557C28.8257 40.2059 24.1927 37.1172 22.0277 36.1791C20.2957 35.2409 16.3552 32.9748 14.45 31.416C8.38789 26.0034 12.0685 16.2607 12.5015 14.9616C12.8479 13.9224 13.5118 13.374 13.8005 13.2297C14.7387 12.8688 16.5718 12.6667 16.3986 14.7452C16.2545 15.0766 16.1219 15.3995 16 15.7139C14.2912 20.1225 14.6954 22.8711 15.0996 24.4879C15.5326 26.2199 17.9141 26.4364 17.6976 24.4879C17.5244 22.929 17.9141 21.3846 18.1306 20.8073C18.275 20.3743 18.7802 19.2051 19.6462 17.9927C20.5122 16.7803 21.5947 17.4875 22.0277 17.9927C22.1721 18.2092 22.2875 19.0319 21.5947 20.5907C18.9966 27.8653 22.3885 31.2716 24.4092 32.0655C24.9866 32.3541 26.1846 32.282 26.3578 29.6839C26.531 27.0859 27.0073 25.859 27.2238 25.5703C27.3681 25.3538 27.8733 24.9208 28.7393 24.9208C29.6053 24.9208 29.9662 25.6425 30.0384 26.0033C30.0383 26.2198 29.9083 27.2591 29.3889 29.6839C28.8694 32.1088 29.1724 34.447 29.3889 35.313C29.6775 35.9625 30.3848 37.3915 30.9042 37.9111C31.4237 38.4307 31.8425 39.2823 31.9869 39.6431L33.2858 43.5401" stroke="black"/>
<path d="M33.2858 43.5401C32.7662 44.4062 30.9042 44.9113 30.0382 45.0557C29.9661 45.2 29.3889 45.6619 29.3889 46.3547C29.3889 47.0475 29.6054 47.4373 29.8219 47.6538C30.0384 47.8703 30.3846 48.26 30.9042 48.0868L35.4508 46.1382C35.523 45.9939 35.6673 45.532 35.6673 44.8392C35.6673 44.1464 34.9456 43.6845 34.5848 43.5401C34.3683 43.468 33.8054 43.3669 33.2858 43.5401Z" fill="#FCC501"/>
<path d="M30.0382 45.0557C30.9042 44.9113 32.7662 44.4062 33.2858 43.5401M30.0382 45.0557C29.9661 45.2 29.3889 45.6619 29.3889 46.3547C29.3889 47.0475 29.6054 47.4373 29.8219 47.6538C30.0384 47.8703 30.3846 48.26 30.9042 48.0868L35.4508 46.1382C35.523 45.9939 35.6673 45.532 35.6673 44.8392C35.6673 44.1464 34.9456 43.6845 34.5848 43.5401C34.3683 43.468 33.8054 43.3669 33.2858 43.5401M30.0382 45.0557C28.8257 40.2059 24.1927 37.1172 22.0277 36.1791C20.2957 35.2409 16.3552 32.9748 14.45 31.416C8.38789 26.0034 12.0685 16.2607 12.5015 14.9616C12.8479 13.9224 13.5118 13.374 13.8005 13.2297C14.7387 12.8688 16.5718 12.6667 16.3986 14.7452C16.2545 15.0766 16.1219 15.3995 16 15.7139C14.2912 20.1225 14.6954 22.8711 15.0996 24.4879C15.5326 26.2199 17.9141 26.4364 17.6976 24.4879C17.5244 22.929 17.9141 21.3846 18.1306 20.8073C18.275 20.3743 18.7802 19.2051 19.6462 17.9927C20.5122 16.7803 21.5947 17.4875 22.0277 17.9927C22.1721 18.2092 22.2875 19.0319 21.5947 20.5907C18.9966 27.8653 22.3885 31.2716 24.4092 32.0655C24.9866 32.3541 26.1846 32.282 26.3578 29.6839C26.531 27.0859 27.0073 25.859 27.2238 25.5703C27.3681 25.3538 27.8733 24.9208 28.7393 24.9208C29.6053 24.9208 29.9662 25.6425 30.0384 26.0033C30.0383 26.2198 29.9083 27.2591 29.3889 29.6839C28.8694 32.1088 29.1724 34.447 29.3889 35.313C29.6775 35.9625 30.3848 37.3915 30.9042 37.9111C31.4237 38.4307 31.8425 39.2823 31.9869 39.6431L33.2858 43.5401" stroke="black"/>
<path d="M107.381 43.5401C107.901 44.4062 109.763 44.9113 110.629 45.0557C110.701 45.2 111.278 45.6619 111.278 46.3547C111.278 47.0475 111.062 47.4373 110.845 47.6538C110.629 47.8703 110.283 48.26 109.763 48.0868L105.216 46.1382C105.144 45.9939 105 45.532 105 44.8392C105 44.1464 105.722 43.6845 106.082 43.5401C106.299 43.468 106.862 43.3669 107.381 43.5401Z" fill="#FCC501"/>
<path d="M110.629 45.0557C109.763 44.9113 107.901 44.4062 107.381 43.5401L108.68 39.6431C108.825 39.2823 109.244 38.4307 109.763 37.9111C110.282 37.3915 110.99 35.9625 111.278 35.313C111.495 34.447 111.798 32.1088 111.278 29.6839C110.759 27.2591 110.629 26.2198 110.629 26.0033C110.701 25.6425 111.062 24.9208 111.928 24.9208C112.794 24.9208 113.299 25.3538 113.443 25.5703C113.66 25.859 114.136 27.0859 114.309 29.6839C114.483 32.282 115.681 32.3541 116.258 32.0655C118.279 31.2716 121.671 27.8653 119.073 20.5907C118.38 19.0319 118.495 18.2092 118.64 17.9927C119.073 17.4875 120.155 16.7803 121.021 17.9927C121.887 19.2051 122.392 20.3743 122.537 20.8073C122.753 21.3846 123.143 22.929 122.97 24.4879C122.753 26.4364 125.135 26.2199 125.568 24.4879C125.972 22.8711 126.376 20.1225 124.667 15.7139C124.545 15.3995 124.413 15.0766 124.269 14.7452C124.095 12.6667 125.929 12.8688 126.867 13.2297C127.155 13.374 127.819 13.9224 128.166 14.9616C128.599 16.2607 132.279 26.0034 126.217 31.416C124.312 32.9748 120.372 35.2409 118.64 36.1791C116.475 37.1172 111.842 40.2059 110.629 45.0557Z" fill="#CF8054"/>
<path d="M110.629 45.0557C109.763 44.9113 107.901 44.4062 107.381 43.5401M110.629 45.0557C110.701 45.2 111.278 45.6619 111.278 46.3547C111.278 47.0475 111.062 47.4373 110.845 47.6538C110.629 47.8703 110.283 48.26 109.763 48.0868L105.216 46.1382C105.144 45.9939 105 45.532 105 44.8392C105 44.1464 105.722 43.6845 106.082 43.5401C106.299 43.468 106.862 43.3669 107.381 43.5401M110.629 45.0557C111.842 40.2059 116.475 37.1172 118.64 36.1791C120.372 35.2409 124.312 32.9748 126.217 31.416C132.279 26.0034 128.599 16.2607 128.166 14.9616C127.819 13.9224 127.155 13.374 126.867 13.2297C125.929 12.8688 124.095 12.6667 124.269 14.7452C124.413 15.0766 124.545 15.3995 124.667 15.7139C126.376 20.1225 125.972 22.8711 125.568 24.4879C125.135 26.2199 122.753 26.4364 122.97 24.4879C123.143 22.929 122.753 21.3846 122.537 20.8073C122.392 20.3743 121.887 19.2051 121.021 17.9927C120.155 16.7803 119.073 17.4875 118.64 17.9927C118.495 18.2092 118.38 19.0319 119.073 20.5907C121.671 27.8653 118.279 31.2716 116.258 32.0655C115.681 32.3541 114.483 32.282 114.309 29.6839C114.136 27.0859 113.66 25.859 113.443 25.5703C113.299 25.3538 112.794 24.9208 111.928 24.9208C111.062 24.9208 110.701 25.6425 110.629 26.0033C110.629 26.2198 110.759 27.2591 111.278 29.6839C111.798 32.1088 111.495 34.447 111.278 35.313C110.99 35.9625 110.282 37.3915 109.763 37.9111C109.244 38.4307 108.825 39.2823 108.68 39.6431L107.381 43.5401" stroke="black"/>
<path d="M107.381 43.5401C107.901 44.4062 109.763 44.9113 110.629 45.0557C110.701 45.2 111.278 45.6619 111.278 46.3547C111.278 47.0475 111.062 47.4373 110.845 47.6538C110.629 47.8703 110.283 48.26 109.763 48.0868L105.216 46.1382C105.144 45.9939 105 45.532 105 44.8392C105 44.1464 105.722 43.6845 106.082 43.5401C106.299 43.468 106.862 43.3669 107.381 43.5401Z" fill="#FCC501"/>
<path d="M110.629 45.0557C109.763 44.9113 107.901 44.4062 107.381 43.5401M110.629 45.0557C110.701 45.2 111.278 45.6619 111.278 46.3547C111.278 47.0475 111.062 47.4373 110.845 47.6538C110.629 47.8703 110.283 48.26 109.763 48.0868L105.216 46.1382C105.144 45.9939 105 45.532 105 44.8392C105 44.1464 105.722 43.6845 106.082 43.5401C106.299 43.468 106.862 43.3669 107.381 43.5401M110.629 45.0557C111.842 40.2059 116.475 37.1172 118.64 36.1791C120.372 35.2409 124.312 32.9748 126.217 31.416C132.279 26.0034 128.599 16.2607 128.166 14.9616C127.819 13.9224 127.155 13.374 126.867 13.2297C125.929 12.8688 124.095 12.6667 124.269 14.7452C124.413 15.0766 124.545 15.3995 124.667 15.7139C126.376 20.1225 125.972 22.8711 125.568 24.4879C125.135 26.2199 122.753 26.4364 122.97 24.4879C123.143 22.929 122.753 21.3846 122.537 20.8073C122.392 20.3743 121.887 19.2051 121.021 17.9927C120.155 16.7803 119.073 17.4875 118.64 17.9927C118.495 18.2092 118.38 19.0319 119.073 20.5907C121.671 27.8653 118.279 31.2716 116.258 32.0655C115.681 32.3541 114.483 32.282 114.309 29.6839C114.136 27.0859 113.66 25.859 113.443 25.5703C113.299 25.3538 112.794 24.9208 111.928 24.9208C111.062 24.9208 110.701 25.6425 110.629 26.0033C110.629 26.2198 110.759 27.2591 111.278 29.6839C111.798 32.1088 111.495 34.447 111.278 35.313C110.99 35.9625 110.282 37.3915 109.763 37.9111C109.244 38.4307 108.825 39.2823 108.68 39.6431L107.381 43.5401" stroke="black"/>
<path d="M84 57C84 58.2709 83.0173 59.3295 82.7 60.5C82.3805 61.678 82.7246 62.9671 82.1271 64C81.4883 65.1042 80.1051 65.613 79.2 66.5C78.4178 67.2665 78.1441 68.4419 77.2 69.0092C76.2654 69.5707 74.7598 69.1671 73.7 69.5C72.3741 69.9164 71.4633 71 70 71C68.6322 71 67.9495 69.8657 66.7 69.5C65.5441 69.1617 63.8109 69.6165 62.8001 69.0092C61.7441 68.3747 61.5508 67.3811 60.7 66.5C59.8286 65.5976 58.3052 64.8022 57.7 63.692C57.1565 62.6952 57.4895 61.6249 57.2 60.5C56.912 59.3813 56 58.2085 56 57C56 55.6101 56.8227 54.7674 57.2 53.5C57.5005 52.4901 57.2918 51.0279 57.8 50.1276C58.4516 48.9734 59.7601 48.421 60.7 47.5C61.4779 46.7377 61.8466 45.5654 62.7848 45C63.7999 44.3883 65.0383 44.84 66.2 44.5C67.4495 44.1343 68.6322 43 70 43C71.3678 43 72.4504 44.1343 73.7 44.5C74.8616 44.84 76.2001 44.3883 77.2152 45C78.1534 45.5654 78.422 46.7377 79.2 47.5C80.1398 48.421 81.5484 48.9734 82.2 50.1276C82.7405 51.085 82.3953 52.4195 82.7 53.5C83.0412 54.7105 84 55.6804 84 57ZM63.5616 57C63.5616 60.5558 66.4442 63.4384 70 63.4384C73.5558 63.4384 76.4384 60.5558 76.4384 57C76.4384 53.4442 73.5558 50.5616 70 50.5616C66.4442 50.5616 63.5616 53.4442 63.5616 57Z" fill="#62A46D"/>
<path d="M70 43.5C70.5478 43.5 71.0644 43.7264 71.6533 44.0508C72.2065 44.3555 72.8655 44.7763 73.5596 44.9795C74.2252 45.1743 74.9445 45.1428 75.5078 45.1484C76.1132 45.1545 76.5767 45.1995 76.957 45.4287C77.3143 45.6441 77.5637 45.9843 77.8418 46.4375C78.1022 46.8619 78.4042 47.4209 78.8496 47.8574C79.3554 48.353 80.0017 48.7611 80.5156 49.1318C81.0578 49.5229 81.4956 49.8966 81.7646 50.373C81.9685 50.7341 82.0196 51.1937 82.0391 51.7842C82.0571 52.3312 82.0452 53.0203 82.2188 53.6357C82.4067 54.3025 82.7706 54.9187 83.0312 55.4346C83.3062 55.9787 83.5 56.4631 83.5 57C83.5 57.5102 83.3025 58.0022 83.0215 58.5635C82.7574 59.0909 82.3937 59.7203 82.2178 60.3691C82.0396 61.0263 82.0452 61.723 82.0186 62.2803C81.9903 62.8714 81.9281 63.3458 81.6943 63.75C81.4339 64.2 81.0089 64.5509 80.4775 64.9219C79.9753 65.2725 79.3415 65.6605 78.8496 66.1426C78.4026 66.5806 78.0978 67.1405 77.835 67.5664C77.5544 68.021 77.303 68.3644 76.9424 68.5811C76.6054 68.7834 76.1275 68.8297 75.4883 68.8408C74.9083 68.8509 74.1679 68.8293 73.5498 69.0234C72.8218 69.2522 72.1878 69.6724 71.6572 69.9697C71.1015 70.2811 70.6003 70.5 70 70.5C69.4691 70.5 69.0598 70.2864 68.5811 69.9697C68.125 69.668 67.5581 69.2306 66.8408 69.0205C66.1764 68.8261 65.3548 68.8596 64.6992 68.8555C63.9781 68.8509 63.4289 68.804 63.0576 68.5811C62.6259 68.3217 62.3637 67.9885 62.0918 67.5732C61.8276 67.1697 61.528 66.6374 61.0596 66.1523C60.5938 65.6701 59.9431 65.2062 59.4121 64.7832C58.848 64.3338 58.3885 63.9112 58.1387 63.4531C57.9252 63.0617 57.8748 62.6428 57.8545 62.124C57.8351 61.6295 57.8465 61.0041 57.6846 60.375C57.5263 59.7603 57.1927 59.1211 56.9473 58.5781C56.6853 57.9985 56.5 57.4882 56.5 57C56.5 56.4119 56.6715 55.9316 56.9121 55.415C57.1438 54.9176 57.4762 54.3231 57.6787 53.6426C57.8483 53.0726 57.8753 52.3775 57.9209 51.8135C57.9705 51.2004 58.0423 50.715 58.2354 50.373C58.5085 49.8893 58.9293 49.5134 59.4434 49.125C59.9328 48.7552 60.5494 48.3477 61.0498 47.8574C61.4868 47.4292 61.8132 46.8798 62.0977 46.4541C62.4007 46.0005 62.6764 45.6497 63.043 45.4287C63.4254 45.1983 63.8671 45.1544 64.4424 45.1484C64.9821 45.1428 65.6756 45.1742 66.3408 44.9795C67.0296 44.7778 67.7113 44.3602 68.2891 44.0547C68.9052 43.7289 69.4485 43.5 70 43.5Z" stroke="#388945"/>
<path d="M70 43.5C70.5478 43.5 71.0644 43.7264 71.6533 44.0508C72.2065 44.3555 72.8655 44.7763 73.5596 44.9795C74.2252 45.1743 74.9445 45.1428 75.5078 45.1484C76.1132 45.1545 76.5767 45.1995 76.957 45.4287C77.3143 45.6441 77.5637 45.9843 77.8418 46.4375C78.1022 46.8619 78.4042 47.4209 78.8496 47.8574C79.3554 48.353 80.0017 48.7611 80.5156 49.1318C81.0578 49.5229 81.4956 49.8966 81.7646 50.373C81.9685 50.7341 82.0196 51.1937 82.0391 51.7842C82.0571 52.3312 82.0452 53.0203 82.2188 53.6357C82.4067 54.3025 82.7706 54.9187 83.0312 55.4346C83.3062 55.9787 83.5 56.4631 83.5 57C83.5 57.5102 83.3025 58.0022 83.0215 58.5635C82.7574 59.0909 82.3937 59.7203 82.2178 60.3691C82.0396 61.0263 82.0452 61.723 82.0186 62.2803C81.9903 62.8714 81.9281 63.3458 81.6943 63.75C81.4339 64.2 81.0089 64.5509 80.4775 64.9219C79.9753 65.2725 79.3415 65.6605 78.8496 66.1426C78.4026 66.5806 78.0978 67.1405 77.835 67.5664C77.5544 68.021 77.303 68.3644 76.9424 68.5811C76.6054 68.7834 76.1275 68.8297 75.4883 68.8408C74.9083 68.8509 74.1679 68.8293 73.5498 69.0234C72.8218 69.2522 72.1878 69.6724 71.6572 69.9697C71.1015 70.2811 70.6003 70.5 70 70.5C69.4691 70.5 69.0598 70.2864 68.5811 69.9697C68.125 69.668 67.5581 69.2306 66.8408 69.0205C66.1764 68.8261 65.3548 68.8596 64.6992 68.8555C63.9781 68.8509 63.4289 68.804 63.0576 68.5811C62.6259 68.3217 62.3637 67.9885 62.0918 67.5732C61.8276 67.1697 61.528 66.6374 61.0596 66.1523C60.5938 65.6701 59.9431 65.2062 59.4121 64.7832C58.848 64.3338 58.3885 63.9112 58.1387 63.4531C57.9252 63.0617 57.8748 62.6428 57.8545 62.124C57.8351 61.6295 57.8465 61.0041 57.6846 60.375C57.5263 59.7603 57.1927 59.1211 56.9473 58.5781C56.6853 57.9985 56.5 57.4882 56.5 57C56.5 56.4119 56.6715 55.9316 56.9121 55.415C57.1438 54.9176 57.4762 54.3231 57.6787 53.6426C57.8483 53.0726 57.8753 52.3775 57.9209 51.8135C57.9705 51.2004 58.0423 50.715 58.2354 50.373C58.5085 49.8893 58.9293 49.5134 59.4434 49.125C59.9328 48.7552 60.5494 48.3477 61.0498 47.8574C61.4868 47.4292 61.8132 46.8798 62.0977 46.4541C62.4007 46.0005 62.6764 45.6497 63.043 45.4287C63.4254 45.1983 63.8671 45.1544 64.4424 45.1484C64.9821 45.1428 65.6756 45.1742 66.3408 44.9795C67.0296 44.7778 67.7113 44.3602 68.2891 44.0547C68.9052 43.7289 69.4485 43.5 70 43.5Z" stroke="black"/>
<circle cx="75.2" cy="60.5" r="1.5" fill="#FCC501"/>
<circle cx="80.2" cy="49.5" r="1.5" fill="#FCC501"/>
<circle cx="72.2" cy="69.5" r="1.5" fill="#FCC501"/>
<circle cx="61.2" cy="63.5" r="1.5" fill="#FCC501"/>
<circle cx="58.2" cy="52.5" r="1.5" fill="#FCC501"/>
<path d="M66 53.6667L68.5 48.5002L70.2143 49.8336L68.2857 55.0001L67.7143 53.0001L66 53.6667Z" fill="#922C25"/>
<path d="M74 53.6667L71.2143 48.1669L69.5 49.5002L71.7143 55.0001L72.2857 53.0001L74 53.6667Z" fill="#922C25"/>
<path d="M68.5783 45.2801C67.7449 43.7801 65.2167 41.1334 63.5783 42.2803C62.577 42.9812 62.0783 44.2801 62.0783 44.7801C62.0162 45.3946 61.9384 46.0106 62.0783 46.4812C62.3294 47.326 62.5857 47.582 63.0771 47.9812C62.5771 48.9812 62.9007 50.7443 64.0771 50.9812C65.0758 51.1824 65.6915 51.0757 66.5783 50.7801C67.4651 50.4845 68.577 49.9812 68.5783 48.7801V47.0301V45.2801Z" fill="#BE3A2B"/>
<path d="M68.5783 47.0301V45.2801C67.7449 43.7801 65.2167 41.1334 63.5783 42.2803C62.577 42.9812 62.0783 44.2801 62.0783 44.7801C62.0162 45.3946 61.9384 46.0106 62.0783 46.4812C62.3294 47.326 62.5857 47.582 63.0771 47.9812C62.5771 48.9812 62.9007 50.7443 64.0771 50.9812C65.0758 51.1824 65.6915 51.0757 66.5783 50.7801C67.4651 50.4845 68.577 49.9812 68.5783 48.7801V47.0301ZM68.5783 47.0301L65.5783 45.2801M68.5783 47.0301L65.5783 48.7801" stroke="black" stroke-linecap="round"/>
<path d="M65.5784 45.28L68.5784 47.03L65.5784 48.78" stroke="#922C25" stroke-linecap="round"/>
<path d="M71.0773 45.2801C71.9106 43.7801 74.4388 41.1334 76.0772 42.2803C77.0785 42.9812 77.5772 44.2801 77.5772 44.7801C77.6393 45.3946 77.7172 46.0106 77.5772 46.4812C77.3261 47.326 77.0698 47.582 76.5785 47.9812C77.0785 48.9812 76.7548 50.7443 75.5785 50.9812C74.5797 51.1824 73.964 51.0757 73.0772 50.7801C72.1905 50.4845 71.0785 49.9812 71.0773 48.7801V47.0301V45.2801Z" fill="#BE3A2B"/>
<path d="M71.0773 47.0301V45.2801C71.9106 43.7801 74.4388 41.1334 76.0772 42.2803C77.0785 42.9812 77.5772 44.2801 77.5772 44.7801C77.6393 45.3946 77.7172 46.0106 77.5772 46.4812C77.3261 47.326 77.0698 47.582 76.5785 47.9812C77.0785 48.9812 76.7548 50.7443 75.5785 50.9812C74.5797 51.1824 73.964 51.0757 73.0772 50.7801C72.1905 50.4845 71.0785 49.9812 71.0773 48.7801V47.0301ZM71.0773 47.0301L74.0773 45.2801M71.0773 47.0301L74.0773 48.7801" stroke="black" stroke-linecap="round"/>
<path d="M74.0771 45.28L71.0771 47.03L74.0771 48.78" stroke="#922C25" stroke-linecap="round"/>
<circle cx="70.0784" cy="47.28" r="2.5" fill="#F97B76"/>
<defs>
<clipPath id="clip0_4849_9628">
<rect x="32" y="47" width="76" height="65" rx="8" fill="white"/>
</clipPath>
</defs>
</svg>
