<svg width="140" height="170" viewBox="0 0 140 170" fill="none" xmlns="http://www.w3.org/2000/svg">
<path d="M17 57C14.2386 57 12 59.2386 12 62C12 62.0796 12.0032 62.1586 12.0068 62.2373C12.0027 62.3244 12 62.4119 12 62.5V85.5C12 88.5376 14.4624 91 17.5 91C20.5376 91 23 88.5376 23 85.5V67H37C39.7614 67 42 64.7614 42 62C42 59.2386 39.7614 57 37 57H17Z" fill="#596C76"/>
<path d="M17 57V56.5V57ZM12.0068 62.2373L12.5063 62.214L12.5074 62.2374L12.5063 62.2608L12.0068 62.2373ZM12 62.5H12.5H12ZM12 85.5H11.5H12ZM17.5 91V91.5V91ZM23 85.5H22.5H23ZM23 67H22.5V66.5H23V67ZM37 67V67.5V67ZM37 57V56.5V57ZM17 57V57.5C14.5147 57.5 12.5 59.5147 12.5 62H12H11.5C11.5 58.9624 13.9624 56.5 17 56.5V57ZM12 62H12.5C12.5 62.0673 12.5027 62.1366 12.5063 62.214L12.0068 62.2373L11.5074 62.2606C11.5036 62.1807 11.5 62.0919 11.5 62H12ZM12.0068 62.2373L12.5063 62.2608C12.5024 62.3428 12.5 62.4221 12.5 62.5H12H11.5C11.5 62.4017 11.5031 62.3059 11.5074 62.2138L12.0068 62.2373ZM12 62.5H12.5V85.5H12H11.5V62.5H12ZM12 85.5H12.5C12.5 88.2614 14.7386 90.5 17.5 90.5V91V91.5C14.1863 91.5 11.5 88.8137 11.5 85.5H12ZM17.5 91V90.5C20.2614 90.5 22.5 88.2614 22.5 85.5H23H23.5C23.5 88.8137 20.8137 91.5 17.5 91.5V91ZM23 85.5H22.5V67H23H23.5V85.5H23ZM23 67V66.5H37V67V67.5H23V67ZM37 67V66.5C39.4853 66.5 41.5 64.4853 41.5 62H42H42.5C42.5 65.0376 40.0376 67.5 37 67.5V67ZM42 62H41.5C41.5 59.5147 39.4853 57.5 37 57.5V57V56.5C40.0376 56.5 42.5 58.9624 42.5 62H42ZM37 57V57.5H17V57V56.5H37V57Z" fill="black"/>
<path d="M123 57C125.761 57 128 59.2386 128 62C128 62.0796 127.997 62.1586 127.993 62.2373C127.997 62.3244 128 62.4119 128 62.5V85.5C128 88.5376 125.538 91 122.5 91C119.462 91 117 88.5376 117 85.5V67H103C100.239 67 98 64.7614 98 62C98 59.2386 100.239 57 103 57H123Z" fill="#596C76"/>
<path d="M123 57V56.5V57ZM127.993 62.2373L127.494 62.214L127.493 62.2374L127.494 62.2608L127.993 62.2373ZM128 62.5H127.5H128ZM128 85.5H128.5H128ZM122.5 91V91.5V91ZM117 85.5H117.5H117ZM117 67H117.5V66.5H117V67ZM103 67V67.5V67ZM103 57V56.5V57ZM123 57V57.5C125.485 57.5 127.5 59.5147 127.5 62H128H128.5C128.5 58.9624 126.038 56.5 123 56.5V57ZM128 62H127.5C127.5 62.0673 127.497 62.1366 127.494 62.214L127.993 62.2373L128.493 62.2606C128.496 62.1807 128.5 62.0919 128.5 62H128ZM127.993 62.2373L127.494 62.2608C127.498 62.3428 127.5 62.4221 127.5 62.5H128H128.5C128.5 62.4017 128.497 62.3059 128.493 62.2138L127.993 62.2373ZM128 62.5H127.5V85.5H128H128.5V62.5H128ZM128 85.5H127.5C127.5 88.2614 125.261 90.5 122.5 90.5V91V91.5C125.814 91.5 128.5 88.8137 128.5 85.5H128ZM122.5 91V90.5C119.739 90.5 117.5 88.2614 117.5 85.5H117H116.5C116.5 88.8137 119.186 91.5 122.5 91.5V91ZM117 85.5H117.5V67H117H116.5V85.5H117ZM117 67V66.5H103V67V67.5H117V67ZM103 67V66.5C100.515 66.5 98.5 64.4853 98.5 62H98H97.5C97.5 65.0376 99.9624 67.5 103 67.5V67ZM98 62H98.5C98.5 59.5147 100.515 57.5 103 57.5V57V56.5C99.9624 56.5 97.5 58.9624 97.5 62H98ZM103 57V57.5H123V57V56.5H103V57Z" fill="black"/>
<rect x="34.8518" y="134.852" width="18.4444" height="18.6605" rx="2.74074" fill="#4F4F4F" stroke="black"/>
<rect x="86.9197" y="134.852" width="18.4444" height="18.6605" rx="2.74074" fill="#4F4F4F" stroke="black"/>
<path d="M103.559 45.4875C108.667 45.4875 112.784 49.6739 112.699 54.7815L111.366 135.152C111.284 140.141 107.216 144.142 102.226 144.142H38.1877C33.2059 144.142 29.141 140.153 29.0471 135.172L27.5364 54.801C27.4404 49.686 31.5601 45.4877 36.676 45.4875H103.559Z" fill="#473E91" stroke="#090D2B"/>
<mask id="mask0_4850_9899" style="mask-type:alpha" maskUnits="userSpaceOnUse" x="28" y="45" width="85" height="99">
<path d="M28.0359 54.792C27.945 49.9564 31.84 45.9875 36.6764 45.9875H103.559C108.388 45.9875 112.28 49.9446 112.2 54.7729L110.866 135.143C110.788 139.86 106.942 143.642 102.226 143.642H38.1878C33.4783 143.642 29.6359 139.871 29.5473 135.162L28.0359 54.792Z" fill="#E4BCBC"/>
</mask>
<g mask="url(#mask0_4850_9899)">
<rect x="69.1357" y="45.9875" width="43.2099" height="97.6543" fill="#3C3385"/>
<rect x="54.2964" y="124.265" width="31.1914" height="11.963" rx="2.09259" fill="white" fill-opacity="0.4" stroke="black"/>
<path d="M29.5 55.5L30.5 114" stroke="#473E91" stroke-width="3" stroke-linecap="round" stroke-linejoin="round"/>
<path d="M111 55.5L110 114" stroke="#3C3385" stroke-width="3" stroke-linecap="round" stroke-linejoin="round"/>
<rect x="92.4692" y="123.765" width="32.1914" height="6.91358" rx="3.45679" fill="#E6E7F5"/>
<rect x="15.1235" y="123.765" width="32.1914" height="6.91358" rx="3.45679" fill="#E6E7F5"/>
</g>
<g clip-path="url(#clip0_4850_9899)">
<path d="M102 49.5C106.694 49.5 110.5 53.3056 110.5 58V102.234C110.5 106.204 107.756 109.649 103.847 110.418C95.7579 112.008 81.4266 114.5 71 114.5C60.5734 114.5 46.2421 112.008 38.1533 110.418C34.2441 109.649 31.5 106.204 31.5 102.234V58C31.5 53.3056 35.3056 49.5 40 49.5H102Z" fill="#77E3FF" stroke="black"/>
<path d="M102 49C106.418 49 110 52.5817 110 57V101.234C110 104.972 107.418 108.206 103.75 108.927C95.6599 110.517 81.3724 113 71 113V49H102Z" fill="#53D1F3"/>
<rect x="29" y="50" width="84.4753" height="10.1543" fill="#627F89"/>
</g>
<path d="M52.0381 28.5363L57.6847 45.4762C57.8794 45.9955 58.6193 47.0729 60.0212 47.2286C61.4231 47.3844 75.4034 47.2935 81.8289 47.2286C83.2308 47.0729 83.9707 45.9955 84.1654 45.4762L89.812 28.5363C89.9419 28.0171 89.812 27.1344 88.2544 27.7575C85.2791 29.1632 82.592 30.2679 80.0687 31.0676C73.5323 33.139 68.0941 33.1632 61.5895 31.0676C59.1184 30.2715 56.4934 29.1694 53.5957 27.7575C52.0381 27.1344 51.9082 28.0171 52.0381 28.5363Z" fill="#FFC90A"/>
<path d="M70.925 26.0051C65.4731 26.0051 62.4946 29.2503 61.5895 31.0676C68.0941 33.1632 73.5323 33.139 80.0687 31.0676C79.2275 29.3152 76.2212 25.8493 70.925 26.0051Z" fill="#FDF400"/>
<path d="M61.5895 31.0676C59.1184 30.2715 56.4934 29.1694 53.5957 27.7575C52.0381 27.1344 51.9082 28.0171 52.0381 28.5363L57.6847 45.4762C57.8794 45.9955 58.6193 47.0729 60.0212 47.2286C61.4231 47.3844 75.4034 47.2935 81.8289 47.2286C83.2308 47.0729 83.9707 45.9955 84.1654 45.4762L89.8121 28.5363C89.9419 28.0171 89.8121 27.1344 88.2544 27.7575C85.2791 29.1632 82.592 30.2679 80.0687 31.0676M61.5895 31.0676C62.4946 29.2503 65.4731 26.0051 70.925 26.0051C76.2212 25.8493 79.2275 29.3152 80.0687 31.0676M61.5895 31.0676C68.0941 33.1632 73.5323 33.139 80.0687 31.0676" stroke="black"/>
<rect x="64.6943" y="33.5" width="12.4615" height="12.4615" rx="6.23076" fill="#FCF500"/>
<path d="M70.799 38.3713H74.2267V39.1494H70.799V38.3713ZM72.6356 36.7311H73.4697V42.3458C73.4697 42.5561 73.444 42.722 73.3926 42.8435C73.3459 42.965 73.2594 43.0608 73.1332 43.1308C73.0164 43.1963 72.8669 43.2407 72.6846 43.264C72.507 43.2921 72.2921 43.3061 72.0397 43.3061C72.021 43.1893 71.9837 43.0491 71.9276 42.8855C71.8715 42.7266 71.8108 42.5911 71.7453 42.479C71.9089 42.4836 72.0608 42.4883 72.201 42.493C72.3412 42.493 72.437 42.493 72.4884 42.493C72.5398 42.4883 72.5771 42.4766 72.6005 42.4579C72.6239 42.4346 72.6356 42.3972 72.6356 42.3458V36.7311ZM72.5094 38.7008L73.1893 38.9041C73.0398 39.3386 72.8599 39.7616 72.6496 40.1728C72.444 40.584 72.2126 40.9625 71.9556 41.3083C71.7033 41.6495 71.4346 41.9439 71.1495 42.1916C71.0841 42.0981 70.9953 41.9906 70.8832 41.8691C70.771 41.7476 70.6682 41.6495 70.5747 41.5747C70.7803 41.4205 70.979 41.2383 71.1706 41.028C71.3621 40.813 71.5421 40.5793 71.7103 40.327C71.8785 40.0747 72.0304 39.8106 72.1659 39.5349C72.3014 39.2545 72.4159 38.9765 72.5094 38.7008ZM68.4438 41.5677L69.2429 41.771C69.1308 42.0607 68.9836 42.3434 68.8013 42.6191C68.6191 42.8949 68.4298 43.1238 68.2335 43.3061C68.1868 43.2594 68.1214 43.2056 68.0373 43.1449C67.9578 43.0841 67.8737 43.0234 67.7849 42.9626C67.7008 42.9065 67.626 42.8621 67.5606 42.8294C67.7522 42.6752 67.9251 42.486 68.0793 42.2617C68.2335 42.0327 68.355 41.8014 68.4438 41.5677ZM69.3971 41.8551L70.0771 41.5537C70.2313 41.7266 70.3808 41.9182 70.5257 42.1285C70.6705 42.3388 70.7803 42.5257 70.8551 42.6892L70.1471 43.0467C70.0771 42.8832 69.9696 42.6892 69.8247 42.4649C69.6845 42.2406 69.542 42.0373 69.3971 41.8551ZM68.7943 38.9181V39.57H69.7967V38.9181H68.7943ZM68.7943 40.1868V40.8457H69.7967V40.1868H68.7943ZM68.7943 37.6563V38.2942H69.7967V37.6563H68.7943ZM68.0092 36.9834H70.6238V41.5116H68.0092V36.9834Z" fill="#CAA000"/>
<path d="M19.8595 95.1054H15.4892C14.7476 96.9065 14.5622 98.8577 14.5622 99.6081V102.654C14.5622 103.405 14.7476 105.356 15.4892 107.157H19.8595C20.6011 105.356 20.7865 103.405 20.7865 102.654V99.6081C20.7865 98.8577 20.6011 96.9065 19.8595 95.1054Z" fill="#AD1B28"/>
<path d="M15.4892 95.1054H14.1649C13.2378 95.7234 11.3838 97.4892 11.3838 99.6081V102.654C11.3838 104.773 13.2378 106.539 14.1649 107.157H15.4892C14.7476 105.356 14.5622 103.405 14.5622 102.654V99.6081C14.5622 98.8577 14.7476 96.9065 15.4892 95.1054Z" fill="#D62134"/>
<path d="M13.7676 95.1054C12.1784 95.6351 9 97.2773 9 99.6081V102.654C9 104.985 12.1784 106.627 13.7676 107.157H14.1649C13.2378 106.539 11.3838 104.773 11.3838 102.654V99.6081C11.3838 97.4892 13.2378 95.7234 14.1649 95.1054H13.7676Z" fill="#AD1B28"/>
<path d="M21.1838 95.1054H19.8595C20.6011 96.9065 20.7865 98.8577 20.7865 99.6081V102.654C20.7865 103.405 20.6011 105.356 19.8595 107.157H21.1838C22.1108 106.539 23.9649 104.773 23.9649 102.654V99.6081C23.9649 97.4892 22.1108 95.7234 21.1838 95.1054Z" fill="#D62134"/>
<path d="M21.5811 107.157C23.1703 106.627 26.3486 104.985 26.3486 102.654V99.6081C26.3486 97.2773 23.1703 95.6351 21.5811 95.1054H21.1838C22.1108 95.7234 23.9649 97.4892 23.9649 99.6081V102.654C23.9649 104.773 22.1108 106.539 21.1838 107.157H21.5811Z" fill="#AD1B28"/>
<path d="M13.7676 93.2514V95.1054H14.1649H15.4892H19.8595H21.1838H21.5811V93.2514H17.6743H13.7676Z" fill="#F9C30B"/>
<path d="M21.5811 108.614V107.157H21.1838H19.8595H15.4892H14.1649H13.7676V108.614H17.6743H21.5811Z" fill="#F9C30B"/>
<path d="M16.9459 115.5H18.4027V111.527L17.6743 111.792L16.9459 111.527V115.5Z" fill="#D01F3B"/>
<path d="M17.6743 109.938L16.9459 109.938V111.527L17.6743 111.792L18.4027 111.527V109.938L17.6743 109.938Z" fill="#90C05A"/>
<path d="M13.7676 93.2514V95.1054H14.1649H15.4892H19.8595H21.1838H21.5811V93.2514H17.6743H13.7676Z" fill="#F9C30B"/>
<path d="M21.5811 108.614V107.157H21.1838H19.8595H15.4892H14.1649H13.7676V108.614H17.6743H21.5811Z" fill="#F9C30B"/>
<path d="M13.7676 95.1054V93.2514H17.6743M13.7676 95.1054C12.1784 95.6351 9 97.2773 9 99.6081M13.7676 95.1054H14.1649M21.5811 95.1054V93.2514H17.6743M21.5811 95.1054C23.1703 95.6351 26.3486 97.2773 26.3486 99.6081M21.5811 95.1054H14.1649M21.5811 95.1054H21.1838H19.8595H15.4892H14.1649M17.6743 93.2514V91M9 99.6081C9 100.879 9 102.257 9 102.654M9 99.6081V102.654M9 102.654C9 104.985 12.1784 106.627 13.7676 107.157M13.7676 107.157V108.614H17.6743M13.7676 107.157H15.4892M13.7676 107.157H14.1649H15.4892M21.5811 107.157V108.614H17.6743M21.5811 107.157C23.1703 106.627 26.3486 104.985 26.3486 102.654M21.5811 107.157H15.4892M21.5811 107.157H21.1838H19.8595H15.4892M17.6743 108.614V109.938M26.3486 102.654C26.3486 101.383 26.3486 100.005 26.3486 99.6081M26.3486 102.654V99.6081" stroke="black"/>
<path d="M124.859 95.1054H120.489C119.748 96.9065 119.562 98.8577 119.562 99.6081V102.654C119.562 103.405 119.748 105.356 120.489 107.157H124.859C125.601 105.356 125.786 103.405 125.786 102.654V99.6081C125.786 98.8577 125.601 96.9065 124.859 95.1054Z" fill="#AD1B28"/>
<path d="M120.489 95.1054H119.165C118.238 95.7234 116.384 97.4892 116.384 99.6081V102.654C116.384 104.773 118.238 106.539 119.165 107.157H120.489C119.748 105.356 119.562 103.405 119.562 102.654V99.6081C119.562 98.8577 119.748 96.9065 120.489 95.1054Z" fill="#D62134"/>
<path d="M118.768 95.1054C117.178 95.6351 114 97.2773 114 99.6081V102.654C114 104.985 117.178 106.627 118.768 107.157H119.165C118.238 106.539 116.384 104.773 116.384 102.654V99.6081C116.384 97.4892 118.238 95.7234 119.165 95.1054H118.768Z" fill="#AD1B28"/>
<path d="M126.184 95.1054H124.859C125.601 96.9065 125.786 98.8577 125.786 99.6081V102.654C125.786 103.405 125.601 105.356 124.859 107.157H126.184C127.111 106.539 128.965 104.773 128.965 102.654V99.6081C128.965 97.4892 127.111 95.7234 126.184 95.1054Z" fill="#D62134"/>
<path d="M126.581 107.157C128.17 106.627 131.349 104.985 131.349 102.654V99.6081C131.349 97.2773 128.17 95.6351 126.581 95.1054H126.184C127.111 95.7234 128.965 97.4892 128.965 99.6081V102.654C128.965 104.773 127.111 106.539 126.184 107.157H126.581Z" fill="#AD1B28"/>
<path d="M118.768 93.2514V95.1054H119.165H120.489H124.859H126.184H126.581V93.2514H122.674H118.768Z" fill="#F9C30B"/>
<path d="M126.581 108.614V107.157H126.184H124.859H120.489H119.165H118.768V108.614H122.674H126.581Z" fill="#F9C30B"/>
<path d="M121.946 115.5H123.403V111.527L122.674 111.792L121.946 111.527V115.5Z" fill="#D01F3B"/>
<path d="M122.674 109.938L121.946 109.938V111.527L122.674 111.792L123.403 111.527V109.938L122.674 109.938Z" fill="#90C05A"/>
<path d="M118.768 93.2514V95.1054H119.165H120.489H124.859H126.184H126.581V93.2514H122.674H118.768Z" fill="#F9C30B"/>
<path d="M126.581 108.614V107.157H126.184H124.859H120.489H119.165H118.768V108.614H122.674H126.581Z" fill="#F9C30B"/>
<path d="M118.768 95.1054V93.2514H122.674M118.768 95.1054C117.178 95.6351 114 97.2773 114 99.6081M118.768 95.1054H119.165M126.581 95.1054V93.2514H122.674M126.581 95.1054C128.17 95.6351 131.349 97.2773 131.349 99.6081M126.581 95.1054H119.165M126.581 95.1054H126.184H124.859H120.489H119.165M122.674 93.2514V91M114 99.6081C114 100.879 114 102.257 114 102.654M114 99.6081V102.654M114 102.654C114 104.985 117.178 106.627 118.768 107.157M118.768 107.157V108.614H122.674M118.768 107.157H120.489M118.768 107.157H119.165H120.489M126.581 107.157V108.614H122.674M126.581 107.157C128.17 106.627 131.349 104.985 131.349 102.654M126.581 107.157H120.489M126.581 107.157H126.184H124.859H120.489M122.674 108.614V109.938M131.349 102.654C131.349 101.383 131.349 100.005 131.349 99.6081M131.349 102.654V99.6081" stroke="black"/>
<defs>
<clipPath id="clip0_4850_9899">
<rect x="32" y="50" width="76" height="65" rx="8" fill="white"/>
</clipPath>
</defs>
</svg>
