<svg width="44" height="44" viewBox="0 0 44 44" fill="none" xmlns="http://www.w3.org/2000/svg">
<path fill-rule="evenodd" clip-rule="evenodd" d="M11.6285 8.48572C12.4964 8.48572 13.2 9.18927 13.2 10.0571C13.2 10.925 12.4964 11.6286 11.6285 11.6286H7.22857L7.22857 17.4429C7.22857 18.3975 6.45467 19.1714 5.5 19.1714C4.54534 19.1714 3.77143 18.3975 3.77143 17.4429V10.2143C3.77143 10.1875 3.77204 10.1609 3.77324 10.1344C3.772 10.1088 3.77138 10.0831 3.77138 10.0571C3.77138 9.18927 4.47493 8.48572 5.3428 8.48572H5.5H11.6285Z" fill="#596C76"/>
<path d="M7.22857 11.6286L7.07143 11.6286L7.07143 11.4714H7.22857V11.6286ZM7.22857 17.4429L7.38572 17.4429V17.4429H7.22857ZM3.77324 10.1344L3.9302 10.1268L3.93056 10.1342L3.93022 10.1416L3.77324 10.1344ZM13.0428 10.0571C13.0428 9.27606 12.4096 8.64286 11.6285 8.64286V8.32857C12.5832 8.32857 13.3571 9.10248 13.3571 10.0571H13.0428ZM11.6285 11.4714C12.4096 11.4714 13.0428 10.8382 13.0428 10.0571H13.3571C13.3571 11.0118 12.5832 11.7857 11.6285 11.7857V11.4714ZM7.22857 11.4714H11.6285V11.7857H7.22857V11.4714ZM7.07143 17.4429L7.07143 11.6286L7.38572 11.6286L7.38572 17.4429L7.07143 17.4429ZM5.5 19.0143C6.36788 19.0143 7.07143 18.3107 7.07143 17.4429H7.38572C7.38572 18.4843 6.54145 19.3286 5.5 19.3286V19.0143ZM3.92857 17.4429C3.92857 18.3107 4.63213 19.0143 5.5 19.0143V19.3286C4.45855 19.3286 3.61429 18.4843 3.61429 17.4429H3.92857ZM3.92857 10.2143V17.4429H3.61429V10.2143H3.92857ZM3.93022 10.1416C3.92913 10.1656 3.92857 10.1899 3.92857 10.2143H3.61429C3.61429 10.1851 3.61495 10.1561 3.61626 10.1273L3.93022 10.1416ZM3.92852 10.0571C3.92852 10.0805 3.92908 10.1037 3.9302 10.1268L3.61628 10.142C3.61492 10.1139 3.61423 10.0856 3.61423 10.0571H3.92852ZM5.3428 8.64286C4.56171 8.64286 3.92852 9.27606 3.92852 10.0571H3.61423C3.61423 9.10248 4.38814 8.32857 5.3428 8.32857V8.64286ZM5.5 8.64286H5.3428V8.32857H5.5V8.64286ZM11.6285 8.64286H5.5V8.32857H11.6285V8.64286Z" fill="black"/>
<path fill-rule="evenodd" clip-rule="evenodd" d="M32.3715 8.48572C31.5036 8.48572 30.8 9.18927 30.8 10.0571C30.8 10.925 31.5036 11.6286 32.3715 11.6286H36.7714L36.7714 17.4429C36.7714 18.3975 37.5453 19.1714 38.5 19.1714C39.4547 19.1714 40.2286 18.3975 40.2286 17.4429V10.2143C40.2286 10.1875 40.228 10.1608 40.2268 10.1343C40.228 10.1087 40.2286 10.083 40.2286 10.0571C40.2286 9.18927 39.5251 8.48572 38.6572 8.48572H38.5H32.3715Z" fill="#596C76"/>
<path d="M36.7714 11.6286L36.9286 11.6286L36.9286 11.4714H36.7714V11.6286ZM36.7714 17.4429L36.6143 17.4429V17.4429H36.7714ZM40.2268 10.1343L40.0698 10.1267L40.0694 10.134L40.0698 10.1414L40.2268 10.1343ZM30.9572 10.0571C30.9572 9.27606 31.5904 8.64286 32.3715 8.64286V8.32857C31.4168 8.32857 30.6429 9.10248 30.6429 10.0571H30.9572ZM32.3715 11.4714C31.5904 11.4714 30.9572 10.8382 30.9572 10.0571H30.6429C30.6429 11.0118 31.4168 11.7857 32.3715 11.7857V11.4714ZM36.7714 11.4714H32.3715V11.7857H36.7714V11.4714ZM36.9286 17.4429L36.9286 11.6286L36.6143 11.6286L36.6143 17.4429L36.9286 17.4429ZM38.5 19.0143C37.6321 19.0143 36.9286 18.3107 36.9286 17.4429H36.6143C36.6143 18.4843 37.4586 19.3286 38.5 19.3286V19.0143ZM40.0714 17.4429C40.0714 18.3107 39.3679 19.0143 38.5 19.0143V19.3286C39.5415 19.3286 40.3857 18.4843 40.3857 17.4429H40.0714ZM40.0714 10.2143V17.4429H40.3857V10.2143H40.0714ZM40.0698 10.1414C40.0709 10.1656 40.0714 10.1898 40.0714 10.2143H40.3857C40.3857 10.1851 40.3851 10.156 40.3837 10.1271L40.0698 10.1414ZM40.0715 10.0571C40.0715 10.0805 40.0709 10.1037 40.0698 10.1267L40.3837 10.1418C40.3851 10.1138 40.3858 10.0855 40.3858 10.0571H40.0715ZM38.6572 8.64286C39.4383 8.64286 40.0715 9.27606 40.0715 10.0571H40.3858C40.3858 9.10248 39.6119 8.32857 38.6572 8.32857V8.64286ZM38.5 8.64286H38.6572V8.32857H38.5V8.64286ZM32.3715 8.64286H38.5V8.32857H32.3715V8.64286Z" fill="black"/>
<rect x="10.9534" y="32.9534" width="5.79683" height="5.86473" rx="0.861376" fill="#4F4F4F" stroke="black" stroke-width="0.314286"/>
<rect x="27.3177" y="32.9534" width="5.79683" height="5.86473" rx="0.861376" fill="#4F4F4F" stroke="black" stroke-width="0.314286"/>
<path d="M32.5472 4.86752H11.5269C9.91892 4.86752 8.62397 6.18706 8.6542 7.79473L9.12921 33.054C9.15865 34.6195 10.4361 35.8732 12.0019 35.8732H32.128C33.6963 35.8732 34.9748 34.6157 35.0008 33.0476L35.42 7.78838C35.4466 6.18313 34.1526 4.86752 32.5472 4.86752Z" fill="#808080" stroke="#090909" stroke-width="0.314286"/>
<mask id="mask0_1113_50720" style="mask-type:alpha" maskUnits="userSpaceOnUse" x="8" y="5" width="28" height="31">
<path d="M8.81131 7.79178C8.78273 6.27203 10.0069 5.02466 11.5269 5.02466H32.5472C34.0648 5.02466 35.288 6.26832 35.2628 7.78577L34.8437 33.045C34.8191 34.5273 33.6105 35.716 32.128 35.716H12.0019C10.5218 35.716 9.31415 34.5309 9.28632 33.051L8.81131 7.79178Z" fill="#E4BCBC"/>
</mask>
<g mask="url(#mask0_1113_50720)">
<rect x="21.7284" y="5.02466" width="13.5802" height="30.6914" fill="#666666"/>
<rect x="17.0645" y="29.6263" width="9.803" height="3.75979" rx="0.657672" fill="white" fill-opacity="0.4" stroke="black" stroke-width="0.314286"/>
<path d="M9.27141 8.01428L9.58569 26.4" stroke="#808080" stroke-width="0.942857" stroke-linecap="round" stroke-linejoin="round"/>
<path d="M34.8857 8.01428L34.5715 26.4" stroke="#666666" stroke-width="0.942857" stroke-linecap="round" stroke-linejoin="round"/>
<rect x="29.0618" y="29.4691" width="10.1173" height="2.17284" rx="1.08642" fill="#E6E7F5"/>
<rect x="4.75305" y="29.4691" width="10.1173" height="2.17284" rx="1.08642" fill="#E6E7F5"/>
</g>
<g clip-path="url(#clip0_1113_50720)">
<path d="M32.0571 6.12862H12.5714C11.096 6.12862 9.89999 7.32466 9.89999 8.80005V22.7024C9.89999 23.9498 10.7624 25.0327 11.991 25.2742C14.5332 25.774 19.0373 26.5572 22.3143 26.5572C25.5912 26.5572 30.0953 25.774 32.6375 25.2742C33.8661 25.0327 34.7286 23.9498 34.7286 22.7024V8.80005C34.7286 7.32466 33.5325 6.12862 32.0571 6.12862Z" fill="#B0B0B0" stroke="black" stroke-width="0.314286"/>
<path fill-rule="evenodd" clip-rule="evenodd" d="M22.3143 26.0857C25.5742 26.0857 30.0647 25.3056 32.6073 24.8057C33.7599 24.5791 34.5715 23.5627 34.5715 22.388V8.48572C34.5715 7.09712 33.4458 5.97144 32.0572 5.97144H22.3143L22.3143 26.0857Z" fill="#909090"/>
<rect x="9.11426" y="6.28577" width="26.5494" height="3.19136" fill="#627F89"/>
</g>
<defs>
<clipPath id="clip0_1113_50720">
<rect x="10.0571" y="6.28577" width="23.8857" height="20.4286" rx="2.51429" fill="white"/>
</clipPath>
</defs>
</svg> 