<svg width="140" height="170" viewBox="0 0 140 170" fill="none" xmlns="http://www.w3.org/2000/svg">
<path d="M17 57C14.2386 57 12 59.2386 12 62C12 62.0796 12.0032 62.1586 12.0068 62.2373C12.0027 62.3244 12 62.4119 12 62.5V85.5C12 88.5376 14.4624 91 17.5 91C20.5376 91 23 88.5376 23 85.5V67H37C39.7614 67 42 64.7614 42 62C42 59.2386 39.7614 57 37 57H17Z" fill="#596C76"/>
<path d="M17 57V56.5V57ZM12.0068 62.2373L12.5063 62.214L12.5074 62.2374L12.5063 62.2608L12.0068 62.2373ZM12 62.5H12.5H12ZM12 85.5H11.5H12ZM17.5 91V91.5V91ZM23 85.5H22.5H23ZM23 67H22.5V66.5H23V67ZM37 67V67.5V67ZM37 57V56.5V57ZM17 57V57.5C14.5147 57.5 12.5 59.5147 12.5 62H12H11.5C11.5 58.9624 13.9624 56.5 17 56.5V57ZM12 62H12.5C12.5 62.0673 12.5027 62.1366 12.5063 62.214L12.0068 62.2373L11.5074 62.2606C11.5036 62.1807 11.5 62.0919 11.5 62H12ZM12.0068 62.2373L12.5063 62.2608C12.5024 62.3428 12.5 62.4221 12.5 62.5H12H11.5C11.5 62.4017 11.5031 62.3059 11.5074 62.2138L12.0068 62.2373ZM12 62.5H12.5V85.5H12H11.5V62.5H12ZM12 85.5H12.5C12.5 88.2614 14.7386 90.5 17.5 90.5V91V91.5C14.1863 91.5 11.5 88.8137 11.5 85.5H12ZM17.5 91V90.5C20.2614 90.5 22.5 88.2614 22.5 85.5H23H23.5C23.5 88.8137 20.8137 91.5 17.5 91.5V91ZM23 85.5H22.5V67H23H23.5V85.5H23ZM23 67V66.5H37V67V67.5H23V67ZM37 67V66.5C39.4853 66.5 41.5 64.4853 41.5 62H42H42.5C42.5 65.0376 40.0376 67.5 37 67.5V67ZM42 62H41.5C41.5 59.5147 39.4853 57.5 37 57.5V57V56.5C40.0376 56.5 42.5 58.9624 42.5 62H42ZM37 57V57.5H17V57V56.5H37V57Z" fill="black"/>
<path d="M123 57C125.761 57 128 59.2386 128 62C128 62.0796 127.997 62.1586 127.993 62.2373C127.997 62.3244 128 62.4119 128 62.5V85.5C128 88.5376 125.538 91 122.5 91C119.462 91 117 88.5376 117 85.5V67H103C100.239 67 98 64.7614 98 62C98 59.2386 100.239 57 103 57H123Z" fill="#596C76"/>
<path d="M123 57V56.5V57ZM127.993 62.2373L127.494 62.214L127.493 62.2374L127.494 62.2608L127.993 62.2373ZM128 62.5H127.5H128ZM128 85.5H128.5H128ZM122.5 91V91.5V91ZM117 85.5H117.5H117ZM117 67H117.5V66.5H117V67ZM103 67V67.5V67ZM103 57V56.5V57ZM123 57V57.5C125.485 57.5 127.5 59.5147 127.5 62H128H128.5C128.5 58.9624 126.038 56.5 123 56.5V57ZM128 62H127.5C127.5 62.0673 127.497 62.1366 127.494 62.214L127.993 62.2373L128.493 62.2606C128.496 62.1807 128.5 62.0919 128.5 62H128ZM127.993 62.2373L127.494 62.2608C127.498 62.3428 127.5 62.4221 127.5 62.5H128H128.5C128.5 62.4017 128.497 62.3059 128.493 62.2138L127.993 62.2373ZM128 62.5H127.5V85.5H128H128.5V62.5H128ZM128 85.5H127.5C127.5 88.2614 125.261 90.5 122.5 90.5V91V91.5C125.814 91.5 128.5 88.8137 128.5 85.5H128ZM122.5 91V90.5C119.739 90.5 117.5 88.2614 117.5 85.5H117H116.5C116.5 88.8137 119.186 91.5 122.5 91.5V91ZM117 85.5H117.5V67H117H116.5V85.5H117ZM117 67V66.5H103V67V67.5H117V67ZM103 67V66.5C100.515 66.5 98.5 64.4853 98.5 62H98H97.5C97.5 65.0376 99.9624 67.5 103 67.5V67ZM98 62H98.5C98.5 59.5147 100.515 57.5 103 57.5V57V56.5C99.9624 56.5 97.5 58.9624 97.5 62H98ZM103 57V57.5H123V57V56.5H103V57Z" fill="black"/>
<rect x="34.8518" y="134.852" width="18.4444" height="18.6605" rx="2.74074" fill="#4F4F4F" stroke="black"/>
<rect x="86.9197" y="134.852" width="18.4444" height="18.6605" rx="2.74074" fill="#4F4F4F" stroke="black"/>
<path d="M103.559 45.4875C108.667 45.4875 112.784 49.6739 112.699 54.7815L111.366 135.152C111.284 140.141 107.216 144.142 102.226 144.142H38.1877C33.2059 144.142 29.141 140.153 29.0471 135.172L27.5364 54.801C27.4404 49.686 31.5601 45.4877 36.676 45.4875H103.559Z" fill="#D6003C" stroke="#090D2B"/>
<mask id="mask0_4849_9627" style="mask-type:alpha" maskUnits="userSpaceOnUse" x="28" y="45" width="85" height="99">
<path d="M28.0359 54.792C27.945 49.9564 31.84 45.9875 36.6764 45.9875H103.559C108.388 45.9875 112.28 49.9446 112.2 54.7729L110.866 135.143C110.788 139.86 106.942 143.642 102.226 143.642H38.1878C33.4783 143.642 29.6359 139.871 29.5473 135.162L28.0359 54.792Z" fill="#E4BCBC"/>
</mask>
<g mask="url(#mask0_4849_9627)">
<rect x="69.1357" y="45.9875" width="43.2099" height="97.6543" fill="#C7043B"/>
<rect x="54.2964" y="124.265" width="31.1914" height="11.963" rx="2.09259" fill="white" fill-opacity="0.4" stroke="black"/>
<path d="M29.5 55.5L30.5 114" stroke="#D6003C" stroke-width="3" stroke-linecap="round" stroke-linejoin="round"/>
<path d="M111 55.5L110 114" stroke="#C7043B" stroke-width="3" stroke-linecap="round" stroke-linejoin="round"/>
<rect x="92.4692" y="123.765" width="32.1914" height="6.91358" rx="3.45679" fill="#E6E7F5"/>
<rect x="15.1235" y="123.765" width="32.1914" height="6.91358" rx="3.45679" fill="#E6E7F5"/>
</g>
<g clip-path="url(#clip0_4849_9627)">
<path d="M32 58C32 53.5817 35.5817 50 40 50H102C106.418 50 110 53.5817 110 58V102.235C110 105.972 107.418 109.206 103.75 109.927C95.6602 111.518 81.3724 114 71 114C60.6276 114 46.3398 111.518 38.2498 109.927C34.5823 109.206 32 105.972 32 102.235V58Z" fill="#77E3FF"/>
<path d="M102 49C106.418 49 110 52.5817 110 57V101.234C110 104.972 107.418 108.206 103.75 108.927C95.6599 110.517 81.3724 113 71 113V49H102Z" fill="#53D1F3"/>
<rect x="29" y="50" width="84.4753" height="10.1543" fill="#627F89"/>
</g>
<circle cx="70" cy="118" r="8.5" fill="#FF4A4A" stroke="black"/>
<circle cx="72" cy="113" r="2" fill="white"/>
<path d="M33.2858 46.5401C32.7662 47.4062 30.9042 47.9113 30.0382 48.0557C29.9661 48.2 29.3889 48.6619 29.3889 49.3547C29.3889 50.0475 29.6054 50.4373 29.8219 50.6538C30.0384 50.8703 30.3846 51.26 30.9042 51.0868L35.4508 49.1382C35.523 48.9939 35.6673 48.532 35.6673 47.8392C35.6673 47.1464 34.9456 46.6845 34.5848 46.5401C34.3683 46.468 33.8054 46.3669 33.2858 46.5401Z" fill="#FCC501"/>
<path d="M30.0382 48.0557C30.9042 47.9113 32.7662 47.4062 33.2858 46.5401L31.9869 42.6431C31.8425 42.2823 31.4237 41.4307 30.9042 40.9111C30.3848 40.3915 29.6775 38.9625 29.3889 38.313C29.1724 37.447 28.8694 35.1088 29.3889 32.6839C29.9083 30.2591 30.0383 29.2198 30.0384 29.0033C29.9662 28.6425 29.6053 27.9208 28.7393 27.9208C27.8733 27.9208 27.3681 28.3538 27.2238 28.5703C27.0073 28.859 26.531 30.0859 26.3578 32.6839C26.1846 35.282 24.9866 35.3541 24.4092 35.0655C22.3885 34.2716 18.9966 30.8653 21.5947 23.5907C22.2875 22.0319 22.1721 21.2092 22.0277 20.9927C21.5947 20.4875 20.5122 19.7803 19.6462 20.9927C18.7802 22.2051 18.275 23.3743 18.1306 23.8073C17.9141 24.3846 17.5244 25.929 17.6976 27.4879C17.9141 29.4364 15.5326 29.2199 15.0996 27.4879C14.6954 25.8711 14.2912 23.1225 16 18.7139C16.1219 18.3995 16.2545 18.0766 16.3986 17.7452C16.5718 15.6667 14.7387 15.8688 13.8005 16.2297C13.5118 16.374 12.8479 16.9224 12.5015 17.9616C12.0685 19.2607 8.38789 29.0034 14.45 34.416C16.3552 35.9748 20.2957 38.2409 22.0277 39.1791C24.1927 40.1172 28.8257 43.2059 30.0382 48.0557Z" fill="#CF8054"/>
<path d="M30.0382 48.0557C30.9042 47.9113 32.7662 47.4062 33.2858 46.5401M30.0382 48.0557C29.9661 48.2 29.3889 48.6619 29.3889 49.3547C29.3889 50.0475 29.6054 50.4373 29.8219 50.6538C30.0384 50.8703 30.3846 51.26 30.9042 51.0868L35.4508 49.1382C35.523 48.9939 35.6673 48.532 35.6673 47.8392C35.6673 47.1464 34.9456 46.6845 34.5848 46.5401C34.3683 46.468 33.8054 46.3669 33.2858 46.5401M30.0382 48.0557C28.8257 43.2059 24.1927 40.1172 22.0277 39.1791C20.2957 38.2409 16.3552 35.9748 14.45 34.416C8.38789 29.0034 12.0685 19.2607 12.5015 17.9616C12.8479 16.9224 13.5118 16.374 13.8005 16.2297C14.7387 15.8688 16.5718 15.6667 16.3986 17.7452C16.2545 18.0766 16.1219 18.3995 16 18.7139C14.2912 23.1225 14.6954 25.8711 15.0996 27.4879C15.5326 29.2199 17.9141 29.4364 17.6976 27.4879C17.5244 25.929 17.9141 24.3846 18.1306 23.8073C18.275 23.3743 18.7802 22.2051 19.6462 20.9927C20.5122 19.7803 21.5947 20.4875 22.0277 20.9927C22.1721 21.2092 22.2875 22.0319 21.5947 23.5907C18.9966 30.8653 22.3885 34.2716 24.4092 35.0655C24.9866 35.3541 26.1846 35.282 26.3578 32.6839C26.531 30.0859 27.0073 28.859 27.2238 28.5703C27.3681 28.3538 27.8733 27.9208 28.7393 27.9208C29.6053 27.9208 29.9662 28.6425 30.0384 29.0033C30.0383 29.2198 29.9083 30.2591 29.3889 32.6839C28.8694 35.1088 29.1724 37.447 29.3889 38.313C29.6775 38.9625 30.3848 40.3915 30.9042 40.9111C31.4237 41.4307 31.8425 42.2823 31.9869 42.6431L33.2858 46.5401" stroke="black"/>
<path d="M33.2858 46.5401C32.7662 47.4062 30.9042 47.9113 30.0382 48.0557C29.9661 48.2 29.3889 48.6619 29.3889 49.3547C29.3889 50.0475 29.6054 50.4373 29.8219 50.6538C30.0384 50.8703 30.3846 51.26 30.9042 51.0868L35.4508 49.1382C35.523 48.9939 35.6673 48.532 35.6673 47.8392C35.6673 47.1464 34.9456 46.6845 34.5848 46.5401C34.3683 46.468 33.8054 46.3669 33.2858 46.5401Z" fill="#FCC501"/>
<path d="M30.0382 48.0557C30.9042 47.9113 32.7662 47.4062 33.2858 46.5401M30.0382 48.0557C29.9661 48.2 29.3889 48.6619 29.3889 49.3547C29.3889 50.0475 29.6054 50.4373 29.8219 50.6538C30.0384 50.8703 30.3846 51.26 30.9042 51.0868L35.4508 49.1382C35.523 48.9939 35.6673 48.532 35.6673 47.8392C35.6673 47.1464 34.9456 46.6845 34.5848 46.5401C34.3683 46.468 33.8054 46.3669 33.2858 46.5401M30.0382 48.0557C28.8257 43.2059 24.1927 40.1172 22.0277 39.1791C20.2957 38.2409 16.3552 35.9748 14.45 34.416C8.38789 29.0034 12.0685 19.2607 12.5015 17.9616C12.8479 16.9224 13.5118 16.374 13.8005 16.2297C14.7387 15.8688 16.5718 15.6667 16.3986 17.7452C16.2545 18.0766 16.1219 18.3995 16 18.7139C14.2912 23.1225 14.6954 25.8711 15.0996 27.4879C15.5326 29.2199 17.9141 29.4364 17.6976 27.4879C17.5244 25.929 17.9141 24.3846 18.1306 23.8073C18.275 23.3743 18.7802 22.2051 19.6462 20.9927C20.5122 19.7803 21.5947 20.4875 22.0277 20.9927C22.1721 21.2092 22.2875 22.0319 21.5947 23.5907C18.9966 30.8653 22.3885 34.2716 24.4092 35.0655C24.9866 35.3541 26.1846 35.282 26.3578 32.6839C26.531 30.0859 27.0073 28.859 27.2238 28.5703C27.3681 28.3538 27.8733 27.9208 28.7393 27.9208C29.6053 27.9208 29.9662 28.6425 30.0384 29.0033C30.0383 29.2198 29.9083 30.2591 29.3889 32.6839C28.8694 35.1088 29.1724 37.447 29.3889 38.313C29.6775 38.9625 30.3848 40.3915 30.9042 40.9111C31.4237 41.4307 31.8425 42.2823 31.9869 42.6431L33.2858 46.5401" stroke="black"/>
<path d="M107.381 46.5401C107.901 47.4062 109.763 47.9113 110.629 48.0557C110.701 48.2 111.278 48.6619 111.278 49.3547C111.278 50.0475 111.062 50.4373 110.845 50.6538C110.629 50.8703 110.283 51.26 109.763 51.0868L105.216 49.1382C105.144 48.9939 105 48.532 105 47.8392C105 47.1464 105.722 46.6845 106.082 46.5401C106.299 46.468 106.862 46.3669 107.381 46.5401Z" fill="#FCC501"/>
<path d="M110.629 48.0557C109.763 47.9113 107.901 47.4062 107.381 46.5401L108.68 42.6431C108.825 42.2823 109.244 41.4307 109.763 40.9111C110.282 40.3915 110.99 38.9625 111.278 38.313C111.495 37.447 111.798 35.1088 111.278 32.6839C110.759 30.2591 110.629 29.2198 110.629 29.0033C110.701 28.6425 111.062 27.9208 111.928 27.9208C112.794 27.9208 113.299 28.3538 113.443 28.5703C113.66 28.859 114.136 30.0859 114.309 32.6839C114.483 35.282 115.681 35.3541 116.258 35.0655C118.279 34.2716 121.671 30.8653 119.073 23.5907C118.38 22.0319 118.495 21.2092 118.64 20.9927C119.073 20.4875 120.155 19.7803 121.021 20.9927C121.887 22.2051 122.392 23.3743 122.537 23.8073C122.753 24.3846 123.143 25.929 122.97 27.4879C122.753 29.4364 125.135 29.2199 125.568 27.4879C125.972 25.8711 126.376 23.1225 124.667 18.7139C124.545 18.3995 124.413 18.0766 124.269 17.7452C124.095 15.6667 125.929 15.8688 126.867 16.2297C127.155 16.374 127.819 16.9224 128.166 17.9616C128.599 19.2607 132.279 29.0034 126.217 34.416C124.312 35.9748 120.372 38.2409 118.64 39.1791C116.475 40.1172 111.842 43.2059 110.629 48.0557Z" fill="#CF8054"/>
<path d="M110.629 48.0557C109.763 47.9113 107.901 47.4062 107.381 46.5401M110.629 48.0557C110.701 48.2 111.278 48.6619 111.278 49.3547C111.278 50.0475 111.062 50.4373 110.845 50.6538C110.629 50.8703 110.283 51.26 109.763 51.0868L105.216 49.1382C105.144 48.9939 105 48.532 105 47.8392C105 47.1464 105.722 46.6845 106.082 46.5401C106.299 46.468 106.862 46.3669 107.381 46.5401M110.629 48.0557C111.842 43.2059 116.475 40.1172 118.64 39.1791C120.372 38.2409 124.312 35.9748 126.217 34.416C132.279 29.0034 128.599 19.2607 128.166 17.9616C127.819 16.9224 127.155 16.374 126.867 16.2297C125.929 15.8688 124.095 15.6667 124.269 17.7452C124.413 18.0766 124.545 18.3995 124.667 18.7139C126.376 23.1225 125.972 25.8711 125.568 27.4879C125.135 29.2199 122.753 29.4364 122.97 27.4879C123.143 25.929 122.753 24.3846 122.537 23.8073C122.392 23.3743 121.887 22.2051 121.021 20.9927C120.155 19.7803 119.073 20.4875 118.64 20.9927C118.495 21.2092 118.38 22.0319 119.073 23.5907C121.671 30.8653 118.279 34.2716 116.258 35.0655C115.681 35.3541 114.483 35.282 114.309 32.6839C114.136 30.0859 113.66 28.859 113.443 28.5703C113.299 28.3538 112.794 27.9208 111.928 27.9208C111.062 27.9208 110.701 28.6425 110.629 29.0033C110.629 29.2198 110.759 30.2591 111.278 32.6839C111.798 35.1088 111.495 37.447 111.278 38.313C110.99 38.9625 110.282 40.3915 109.763 40.9111C109.244 41.4307 108.825 42.2823 108.68 42.6431L107.381 46.5401" stroke="black"/>
<path d="M107.381 46.5401C107.901 47.4062 109.763 47.9113 110.629 48.0557C110.701 48.2 111.278 48.6619 111.278 49.3547C111.278 50.0475 111.062 50.4373 110.845 50.6538C110.629 50.8703 110.283 51.26 109.763 51.0868L105.216 49.1382C105.144 48.9939 105 48.532 105 47.8392C105 47.1464 105.722 46.6845 106.082 46.5401C106.299 46.468 106.862 46.3669 107.381 46.5401Z" fill="#FCC501"/>
<path d="M110.629 48.0557C109.763 47.9113 107.901 47.4062 107.381 46.5401M110.629 48.0557C110.701 48.2 111.278 48.6619 111.278 49.3547C111.278 50.0475 111.062 50.4373 110.845 50.6538C110.629 50.8703 110.283 51.26 109.763 51.0868L105.216 49.1382C105.144 48.9939 105 48.532 105 47.8392C105 47.1464 105.722 46.6845 106.082 46.5401C106.299 46.468 106.862 46.3669 107.381 46.5401M110.629 48.0557C111.842 43.2059 116.475 40.1172 118.64 39.1791C120.372 38.2409 124.312 35.9748 126.217 34.416C132.279 29.0034 128.599 19.2607 128.166 17.9616C127.819 16.9224 127.155 16.374 126.867 16.2297C125.929 15.8688 124.095 15.6667 124.269 17.7452C124.413 18.0766 124.545 18.3995 124.667 18.7139C126.376 23.1225 125.972 25.8711 125.568 27.4879C125.135 29.2199 122.753 29.4364 122.97 27.4879C123.143 25.929 122.753 24.3846 122.537 23.8073C122.392 23.3743 121.887 22.2051 121.021 20.9927C120.155 19.7803 119.073 20.4875 118.64 20.9927C118.495 21.2092 118.38 22.0319 119.073 23.5907C121.671 30.8653 118.279 34.2716 116.258 35.0655C115.681 35.3541 114.483 35.282 114.309 32.6839C114.136 30.0859 113.66 28.859 113.443 28.5703C113.299 28.3538 112.794 27.9208 111.928 27.9208C111.062 27.9208 110.701 28.6425 110.629 29.0033C110.629 29.2198 110.759 30.2591 111.278 32.6839C111.798 35.1088 111.495 37.447 111.278 38.313C110.99 38.9625 110.282 40.3915 109.763 40.9111C109.244 41.4307 108.825 42.2823 108.68 42.6431L107.381 46.5401" stroke="black"/>
<path d="M84 60C84 61.2709 83.0173 62.3295 82.7 63.5C82.3805 64.678 82.7246 65.9671 82.1271 67C81.4883 68.1042 80.1051 68.613 79.2 69.5C78.4178 70.2665 78.1441 71.4419 77.2 72.0092C76.2654 72.5707 74.7598 72.1671 73.7 72.5C72.3741 72.9164 71.4633 74 70 74C68.6322 74 67.9495 72.8657 66.7 72.5C65.5441 72.1617 63.8109 72.6165 62.8001 72.0092C61.7441 71.3747 61.5508 70.3811 60.7 69.5C59.8286 68.5976 58.3052 67.8022 57.7 66.692C57.1565 65.6952 57.4895 64.6249 57.2 63.5C56.912 62.3813 56 61.2085 56 60C56 58.6101 56.8227 57.7674 57.2 56.5C57.5005 55.4901 57.2918 54.0279 57.8 53.1276C58.4516 51.9734 59.7601 51.421 60.7 50.5C61.4779 49.7377 61.8466 48.5654 62.7848 48C63.7999 47.3883 65.0383 47.84 66.2 47.5C67.4495 47.1343 68.6322 46 70 46C71.3678 46 72.4504 47.1343 73.7 47.5C74.8616 47.84 76.2001 47.3883 77.2152 48C78.1534 48.5654 78.422 49.7377 79.2 50.5C80.1398 51.421 81.5484 51.9734 82.2 53.1276C82.7405 54.085 82.3953 55.4195 82.7 56.5C83.0412 57.7105 84 58.6804 84 60ZM63.5616 60C63.5616 63.5558 66.4442 66.4384 70 66.4384C73.5558 66.4384 76.4384 63.5558 76.4384 60C76.4384 56.4442 73.5558 53.5616 70 53.5616C66.4442 53.5616 63.5616 56.4442 63.5616 60Z" fill="#62A46D"/>
<path d="M70 46.5C70.5478 46.5 71.0644 46.7264 71.6533 47.0508C72.2065 47.3555 72.8655 47.7763 73.5596 47.9795C74.2252 48.1743 74.9445 48.1428 75.5078 48.1484C76.1132 48.1545 76.5767 48.1995 76.957 48.4287C77.3143 48.6441 77.5637 48.9843 77.8418 49.4375C78.1022 49.8619 78.4042 50.4209 78.8496 50.8574C79.3554 51.353 80.0017 51.7611 80.5156 52.1318C81.0578 52.5229 81.4956 52.8966 81.7646 53.373C81.9685 53.7341 82.0196 54.1937 82.0391 54.7842C82.0571 55.3312 82.0452 56.0203 82.2188 56.6357C82.4067 57.3025 82.7706 57.9187 83.0312 58.4346C83.3062 58.9787 83.5 59.4631 83.5 60C83.5 60.5102 83.3025 61.0022 83.0215 61.5635C82.7574 62.0909 82.3937 62.7203 82.2178 63.3691C82.0396 64.0263 82.0452 64.723 82.0186 65.2803C81.9903 65.8714 81.9281 66.3458 81.6943 66.75C81.4339 67.2 81.0089 67.5509 80.4775 67.9219C79.9753 68.2725 79.3415 68.6605 78.8496 69.1426C78.4026 69.5806 78.0978 70.1405 77.835 70.5664C77.5544 71.021 77.303 71.3644 76.9424 71.5811C76.6054 71.7834 76.1275 71.8297 75.4883 71.8408C74.9083 71.8509 74.1679 71.8293 73.5498 72.0234C72.8218 72.2522 72.1878 72.6724 71.6572 72.9697C71.1015 73.2811 70.6003 73.5 70 73.5C69.4691 73.5 69.0598 73.2864 68.5811 72.9697C68.125 72.668 67.5581 72.2306 66.8408 72.0205C66.1764 71.8261 65.3548 71.8596 64.6992 71.8555C63.9781 71.8509 63.4289 71.804 63.0576 71.5811C62.6259 71.3217 62.3637 70.9885 62.0918 70.5732C61.8276 70.1697 61.528 69.6374 61.0596 69.1523C60.5938 68.6701 59.9431 68.2062 59.4121 67.7832C58.848 67.3338 58.3885 66.9112 58.1387 66.4531C57.9252 66.0617 57.8748 65.6428 57.8545 65.124C57.8351 64.6295 57.8465 64.0041 57.6846 63.375C57.5263 62.7603 57.1927 62.1211 56.9473 61.5781C56.6853 60.9985 56.5 60.4882 56.5 60C56.5 59.4119 56.6715 58.9316 56.9121 58.415C57.1438 57.9176 57.4762 57.3231 57.6787 56.6426C57.8483 56.0726 57.8753 55.3775 57.9209 54.8135C57.9705 54.2004 58.0423 53.715 58.2354 53.373C58.5085 52.8893 58.9293 52.5134 59.4434 52.125C59.9328 51.7552 60.5494 51.3477 61.0498 50.8574C61.4868 50.4292 61.8132 49.8798 62.0977 49.4541C62.4007 49.0005 62.6764 48.6497 63.043 48.4287C63.4254 48.1983 63.8671 48.1544 64.4424 48.1484C64.9821 48.1428 65.6756 48.1742 66.3408 47.9795C67.0296 47.7778 67.7113 47.3602 68.2891 47.0547C68.9052 46.7289 69.4485 46.5 70 46.5Z" stroke="#388945"/>
<path d="M70 46.5C70.5478 46.5 71.0644 46.7264 71.6533 47.0508C72.2065 47.3555 72.8655 47.7763 73.5596 47.9795C74.2252 48.1743 74.9445 48.1428 75.5078 48.1484C76.1132 48.1545 76.5767 48.1995 76.957 48.4287C77.3143 48.6441 77.5637 48.9843 77.8418 49.4375C78.1022 49.8619 78.4042 50.4209 78.8496 50.8574C79.3554 51.353 80.0017 51.7611 80.5156 52.1318C81.0578 52.5229 81.4956 52.8966 81.7646 53.373C81.9685 53.7341 82.0196 54.1937 82.0391 54.7842C82.0571 55.3312 82.0452 56.0203 82.2188 56.6357C82.4067 57.3025 82.7706 57.9187 83.0312 58.4346C83.3062 58.9787 83.5 59.4631 83.5 60C83.5 60.5102 83.3025 61.0022 83.0215 61.5635C82.7574 62.0909 82.3937 62.7203 82.2178 63.3691C82.0396 64.0263 82.0452 64.723 82.0186 65.2803C81.9903 65.8714 81.9281 66.3458 81.6943 66.75C81.4339 67.2 81.0089 67.5509 80.4775 67.9219C79.9753 68.2725 79.3415 68.6605 78.8496 69.1426C78.4026 69.5806 78.0978 70.1405 77.835 70.5664C77.5544 71.021 77.303 71.3644 76.9424 71.5811C76.6054 71.7834 76.1275 71.8297 75.4883 71.8408C74.9083 71.8509 74.1679 71.8293 73.5498 72.0234C72.8218 72.2522 72.1878 72.6724 71.6572 72.9697C71.1015 73.2811 70.6003 73.5 70 73.5C69.4691 73.5 69.0598 73.2864 68.5811 72.9697C68.125 72.668 67.5581 72.2306 66.8408 72.0205C66.1764 71.8261 65.3548 71.8596 64.6992 71.8555C63.9781 71.8509 63.4289 71.804 63.0576 71.5811C62.6259 71.3217 62.3637 70.9885 62.0918 70.5732C61.8276 70.1697 61.528 69.6374 61.0596 69.1523C60.5938 68.6701 59.9431 68.2062 59.4121 67.7832C58.848 67.3338 58.3885 66.9112 58.1387 66.4531C57.9252 66.0617 57.8748 65.6428 57.8545 65.124C57.8351 64.6295 57.8465 64.0041 57.6846 63.375C57.5263 62.7603 57.1927 62.1211 56.9473 61.5781C56.6853 60.9985 56.5 60.4882 56.5 60C56.5 59.4119 56.6715 58.9316 56.9121 58.415C57.1438 57.9176 57.4762 57.3231 57.6787 56.6426C57.8483 56.0726 57.8753 55.3775 57.9209 54.8135C57.9705 54.2004 58.0423 53.715 58.2354 53.373C58.5085 52.8893 58.9293 52.5134 59.4434 52.125C59.9328 51.7552 60.5494 51.3477 61.0498 50.8574C61.4868 50.4292 61.8132 49.8798 62.0977 49.4541C62.4007 49.0005 62.6764 48.6497 63.043 48.4287C63.4254 48.1983 63.8671 48.1544 64.4424 48.1484C64.9821 48.1428 65.6756 48.1742 66.3408 47.9795C67.0296 47.7778 67.7113 47.3602 68.2891 47.0547C68.9052 46.7289 69.4485 46.5 70 46.5Z" stroke="black"/>
<circle cx="75.2" cy="63.5" r="1.5" fill="#FCC501"/>
<circle cx="80.2" cy="52.5" r="1.5" fill="#FCC501"/>
<circle cx="72.2" cy="72.5" r="1.5" fill="#FCC501"/>
<circle cx="61.2" cy="66.5" r="1.5" fill="#FCC501"/>
<circle cx="58.2" cy="55.5" r="1.5" fill="#FCC501"/>
<path d="M66 56.6667L68.5 51.5002L70.2143 52.8336L68.2857 58.0001L67.7143 56.0001L66 56.6667Z" fill="#922C25"/>
<path d="M74 56.6667L71.2143 51.1669L69.5 52.5002L71.7143 58.0001L72.2857 56.0001L74 56.6667Z" fill="#922C25"/>
<path d="M68.5783 48.2801C67.7449 46.7801 65.2167 44.1334 63.5783 45.2803C62.577 45.9812 62.0783 47.2801 62.0783 47.7801C62.0162 48.3946 61.9384 49.0106 62.0783 49.4812C62.3294 50.326 62.5857 50.582 63.0771 50.9812C62.5771 51.9812 62.9007 53.7443 64.0771 53.9812C65.0758 54.1824 65.6915 54.0757 66.5783 53.7801C67.4651 53.4845 68.577 52.9812 68.5783 51.7801V50.0301V48.2801Z" fill="#BE3A2B"/>
<path d="M68.5783 50.0301V48.2801C67.7449 46.7801 65.2167 44.1334 63.5783 45.2803C62.577 45.9812 62.0783 47.2801 62.0783 47.7801C62.0162 48.3946 61.9384 49.0106 62.0783 49.4812C62.3294 50.326 62.5857 50.582 63.0771 50.9812C62.5771 51.9812 62.9007 53.7443 64.0771 53.9812C65.0758 54.1824 65.6915 54.0757 66.5783 53.7801C67.4651 53.4845 68.577 52.9812 68.5783 51.7801V50.0301ZM68.5783 50.0301L65.5783 48.2801M68.5783 50.0301L65.5783 51.7801" stroke="black" stroke-linecap="round"/>
<path d="M65.5784 48.28L68.5784 50.03L65.5784 51.78" stroke="#922C25" stroke-linecap="round"/>
<path d="M71.0773 48.2801C71.9106 46.7801 74.4388 44.1334 76.0772 45.2803C77.0785 45.9812 77.5772 47.2801 77.5772 47.7801C77.6393 48.3946 77.7172 49.0106 77.5772 49.4812C77.3261 50.326 77.0698 50.582 76.5785 50.9812C77.0785 51.9812 76.7548 53.7443 75.5785 53.9812C74.5797 54.1824 73.964 54.0757 73.0772 53.7801C72.1905 53.4845 71.0785 52.9812 71.0773 51.7801V50.0301V48.2801Z" fill="#BE3A2B"/>
<path d="M71.0773 50.0301V48.2801C71.9106 46.7801 74.4388 44.1334 76.0772 45.2803C77.0785 45.9812 77.5772 47.2801 77.5772 47.7801C77.6393 48.3946 77.7172 49.0106 77.5772 49.4812C77.3261 50.326 77.0698 50.582 76.5785 50.9812C77.0785 51.9812 76.7548 53.7443 75.5785 53.9812C74.5797 54.1824 73.964 54.0757 73.0772 53.7801C72.1905 53.4845 71.0785 52.9812 71.0773 51.7801V50.0301ZM71.0773 50.0301L74.0773 48.2801M71.0773 50.0301L74.0773 51.7801" stroke="black" stroke-linecap="round"/>
<path d="M74.0771 48.28L71.0771 50.03L74.0771 51.78" stroke="#922C25" stroke-linecap="round"/>
<circle cx="70.0784" cy="50.28" r="2.5" fill="#F97B76"/>
<defs>
<clipPath id="clip0_4849_9627">
<rect x="32" y="50" width="76" height="65" rx="8" fill="white"/>
</clipPath>
</defs>
</svg>
